<svg xmlns="http://www.w3.org/2000/svg"><path id="land" d="M20.8,159.5 L18.9,159.6 L16.3,158.6 L18.8,158.4 L20.8,159.5Z M134.8,158.1 L136.1,158.5 L136.7,160.0 L127.7,160.0 L131.3,158.1 L134.8,158.1Z M58.8,153.5 L61.3,153.5 L59.8,154.1 L57.4,153.7 L58.8,153.5Z M54.4,153.5 L56.0,153.9 L52.7,153.5 L54.4,153.5Z M81.0,151.9 L83.8,152.5 L77.7,151.9 L81.0,151.9Z M111.5,151.0 L111.2,152.2 L108.9,152.5 L105.8,152.4 L105.0,151.7 L107.9,151.2 L108.3,149.5 L109.8,148.9 L111.5,151.0Z M121.4,144.2 L118.0,144.8 L117.3,145.5 L117.9,146.2 L114.3,147.9 L118.2,150.7 L119.2,153.7 L109.4,156.6 L102.8,156.7 L106.3,157.9 L102.1,158.4 L102.0,159.2 L103.8,160.0 L150.8,160.0 L150.3,159.3 L144.4,159.5 L144.2,158.3 L162.5,155.1 L164.3,154.5 L163.9,153.5 L169.7,151.3 L179.8,151.6 L187.7,149.9 L190.8,150.8 L193.4,150.0 L207.1,150.5 L212.0,149.7 L213.9,148.5 L218.7,149.8 L234.5,145.8 L241.4,147.9 L244.1,147.4 L248.9,147.9 L249.7,149.2 L247.8,150.3 L249.1,150.7 L247.9,151.8 L249.9,152.3 L253.9,149.9 L257.6,149.5 L262.8,147.2 L266.8,147.2 L268.0,146.2 L269.7,147.2 L275.8,147.4 L279.7,147.2 L282.8,145.6 L286.2,146.9 L293.6,145.9 L299.8,147.3 L303.2,146.5 L314.8,146.2 L315.1,145.3 L317.5,146.9 L325.5,146.9 L328.8,148.4 L334.3,148.6 L341.6,150.6 L351.2,151.7 L349.3,153.7 L346.1,154.4 L343.6,156.2 L344.7,158.2 L347.0,158.8 L341.8,159.2 L340.8,160.0 L33.3,160.0 L24.7,159.1 L21.9,158.0 L21.6,156.9 L28.7,157.4 L33.9,156.5 L33.8,155.4 L44.8,154.3 L58.9,154.5 L66.1,153.7 L67.7,154.7 L72.4,155.2 L79.9,154.9 L77.5,154.1 L76.3,152.6 L83.7,153.6 L89.9,153.3 L90.8,152.6 L98.5,153.8 L99.7,153.1 L105.1,153.9 L112.6,152.5 L111.5,149.7 L112.6,148.2 L112.3,147.3 L117.0,144.6 L122.8,143.5 L121.4,144.2Z M112.2,133.8 L115.0,134.7 L110.8,135.5 L105.3,132.8 L108.9,134.1 L110.7,132.5 L112.2,133.8Z M121.5,131.1 L122.0,131.9 L118.8,131.8 L121.5,131.1Z M250.3,129.7 L248.8,129.8 L248.9,128.6 L250.5,129.1 L250.3,129.7Z M325.4,120.8 L328.3,120.9 L327.9,123.2 L326.1,123.5 L324.7,121.2 L325.4,120.8Z M353.0,120.9 L354.2,121.3 L352.7,123.4 L353.1,123.8 L351.4,124.2 L349.3,126.6 L346.7,126.2 L347.1,125.1 L353.0,120.9Z M354.6,116.2 L356.8,117.9 L358.5,117.7 L358.0,119.2 L357.2,119.2 L355.2,121.7 L354.6,121.3 L354.9,119.9 L353.8,119.5 L354.7,117.4 L352.6,114.5 L354.3,115.3 L354.6,116.2Z M347.1,102.2 L345.5,101.7 L344.0,100.1 L347.1,102.2Z M358.4,97.3 L358.6,98.2 L357.4,98.2 L358.4,97.3Z M359.4,96.8 L358.6,96.6 L360.0,96.1 L359.4,96.8Z M347.8,96.5 L347.2,95.9 L347.8,96.5Z M347.1,94.9 L347.3,95.7 L346.6,94.6 L347.1,94.9Z M230.1,93.6 L230.4,95.7 L229.7,95.7 L227.1,104.9 L225.4,105.6 L224.0,105.0 L223.2,102.1 L224.4,100.1 L224.4,96.2 L227.7,94.6 L229.2,92.0 L230.1,93.6Z M323.6,93.8 L325.4,95.0 L326.4,99.0 L328.9,100.4 L329.7,102.3 L330.7,102.4 L333.1,106.1 L333.6,108.1 L332.9,111.6 L330.0,117.4 L326.3,119.0 L325.0,117.9 L323.6,118.8 L320.6,118.0 L319.6,116.1 L318.1,115.6 L318.2,114.4 L316.8,115.3 L317.8,112.9 L316.0,114.9 L314.3,112.6 L311.3,111.5 L306.1,112.2 L303.7,113.9 L299.9,114.0 L298.0,115.1 L295.0,114.2 L295.7,111.6 L293.3,106.1 L293.8,106.5 L293.4,105.6 L294.2,106.3 L293.4,104.4 L294.1,101.8 L294.2,102.5 L296.7,100.7 L300.9,99.7 L303.0,96.4 L303.9,97.1 L303.5,96.6 L305.7,94.2 L307.1,93.8 L309.6,95.0 L310.6,92.5 L312.6,92.1 L311.8,91.3 L312.4,91.1 L315.3,92.2 L316.5,91.9 L316.9,92.3 L315.5,95.0 L320.2,97.7 L321.3,96.4 L322.5,90.7 L323.6,93.8Z M342.1,90.5 L341.3,90.2 L342.1,90.5Z M300.7,90.2 L299.0,89.6 L299.9,89.4 L300.7,90.2Z M340.9,89.9 L339.7,89.2 L340.9,89.9Z M341.7,89.6 L340.6,88.3 L341.7,89.6Z M304.4,90.1 L303.5,90.2 L305.1,88.7 L307.3,88.4 L304.4,90.1Z M297.9,88.1 L299.1,88.7 L296.7,89.0 L297.9,88.1Z M302.9,88.1 L302.8,88.7 L299.9,88.8 L302.9,88.1Z M339.9,88.3 L338.2,87.4 L339.9,88.3Z M337.5,87.3 L336.5,86.6 L337.5,87.3Z M288.6,86.8 L290.8,86.5 L295.7,88.4 L294.6,88.8 L285.4,86.8 L286.1,85.9 L288.6,86.8Z M314.7,86.2 L314.2,86.9 L314.5,85.5 L314.7,86.2Z M335.9,86.8 L334.5,85.1 L335.9,86.8Z M332.0,85.5 L330.2,86.3 L328.3,85.8 L330.1,85.0 L330.8,85.5 L331.5,84.2 L332.3,84.3 L332.0,85.5Z M307.2,83.5 L306.0,83.2 L307.2,83.5Z M310.5,83.1 L310.8,83.9 L307.9,83.4 L308.1,82.8 L310.5,83.1Z M333.1,84.5 L330.7,82.7 L332.2,83.2 L333.1,84.5Z M314.1,81.2 L314.4,82.8 L315.5,83.4 L318.3,81.7 L324.6,83.9 L327.6,86.1 L327.2,87.4 L330.7,90.6 L327.9,90.1 L324.7,87.6 L322.6,89.3 L319.1,88.1 L317.6,88.4 L318.7,87.3 L317.9,85.4 L313.7,83.5 L313.0,84.1 L312.0,82.8 L313.7,82.2 L312.2,82.2 L310.5,80.9 L312.4,80.4 L314.1,81.2Z M305.2,78.6 L303.7,79.8 L300.2,79.8 L300.9,81.4 L303.3,80.6 L301.5,81.9 L303.2,85.3 L302.2,85.3 L302.7,84.5 L301.5,84.6 L301.0,82.6 L300.3,82.9 L300.4,85.5 L299.4,85.4 L299.5,83.5 L298.8,82.8 L300.0,79.4 L300.9,78.7 L305.2,78.6Z M308.7,78.9 L308.1,80.9 L307.4,79.0 L307.9,77.8 L308.7,78.9Z M285.8,85.8 L284.7,85.9 L282.6,84.2 L275.3,74.5 L277.5,74.8 L283.8,79.9 L283.4,80.7 L286.1,83.1 L285.8,85.8Z M297.9,78.2 L299.0,79.1 L297.8,79.2 L296.1,84.0 L290.2,82.9 L289.1,80.5 L289.7,78.0 L291.2,78.2 L291.4,77.3 L293.0,76.9 L296.7,73.1 L299.2,74.6 L297.3,76.8 L297.9,78.2Z M306.4,71.6 L306.5,72.8 L306.2,73.7 L305.8,72.7 L305.4,73.2 L305.4,74.4 L304.2,73.8 L303.6,72.2 L301.9,72.8 L303.5,71.3 L305.5,71.0 L305.4,70.2 L306.4,71.6Z M261.2,73.8 L260.4,74.0 L259.9,73.2 L260.1,70.2 L261.8,72.5 L261.2,73.8Z M119.1,69.9 L118.0,69.9 L118.9,69.1 L119.1,69.9Z M304.0,69.7 L303.0,71.0 L302.4,70.3 L304.1,68.8 L304.0,69.7Z M298.5,70.7 L297.2,71.6 L299.5,68.6 L299.7,69.5 L298.5,70.7Z M301.9,68.1 L303.1,68.4 L302.0,69.6 L301.9,68.1Z M305.5,67.8 L305.8,69.0 L305.0,68.7 L304.8,69.9 L304.3,67.4 L305.5,67.8Z M301.5,66.9 L301.3,67.8 L300.3,66.5 L301.5,66.9Z M301.3,61.5 L302.2,61.5 L302.5,62.9 L301.7,64.1 L301.7,65.7 L303.9,66.2 L304.1,67.5 L302.9,66.5 L300.6,66.1 L301.0,65.5 L300.1,65.0 L299.9,63.6 L300.3,64.0 L300.7,61.5 L301.3,61.5Z M114.4,61.8 L112.8,61.6 L114.4,61.8Z M103.1,62.1 L101.7,61.8 L103.8,62.1 L103.1,62.1Z M107.4,60.1 L110.0,60.4 L111.7,61.4 L109.3,61.6 L108.6,62.4 L105.5,61.7 L107.7,61.3 L106.6,60.4 L107.4,60.1Z M290.3,61.3 L288.7,61.5 L288.6,60.6 L290.8,59.9 L290.3,61.3Z M24.5,60.9 L24.1,59.7 L25.2,60.5 L24.5,60.9Z M23.9,59.4 L23.3,59.1 L23.9,59.4Z M23.2,58.8 L22.7,58.9 L23.2,58.8Z M22.3,58.7 L21.7,58.4 L22.3,58.7Z M100.3,57.2 L105.8,59.7 L102.2,60.1 L102.9,59.6 L101.3,58.4 L98.2,57.4 L95.0,58.1 L97.7,56.8 L100.3,57.2Z M102.5,56.2 L101.8,54.8 L102.5,56.2Z M301.2,57.2 L300.8,58.0 L300.1,56.4 L301.5,54.7 L301.2,57.2Z M102.2,53.4 L101.0,53.2 L102.2,53.4Z M103.0,53.4 L102.8,54.1 L102.2,53.0 L103.0,53.4Z M314.6,45.9 L314.2,46.8 L312.4,47.0 L312.9,45.9 L314.6,45.9Z M214.6,44.3 L213.0,45.4 L212.3,44.9 L214.6,44.3Z M203.7,44.3 L206.3,44.7 L204.7,45.1 L203.7,44.3Z M195.5,41.8 L195.1,43.4 L192.4,42.4 L195.5,41.8Z M189.2,38.8 L189.7,40.8 L188.8,41.1 L188.2,39.0 L189.2,38.8Z M321.0,42.9 L320.2,44.9 L317.2,45.4 L315.8,46.5 L315.1,45.4 L311.0,46.1 L312.0,46.9 L311.3,48.5 L310.2,48.6 L310.4,47.7 L309.4,46.7 L312.6,44.6 L315.7,44.5 L316.7,42.7 L317.4,43.2 L319.4,41.8 L319.9,39.4 L321.4,38.6 L321.9,40.8 L321.0,42.9Z M189.6,37.9 L189.2,38.6 L188.5,37.7 L189.4,37.0 L189.6,37.9Z M323.9,35.8 L325.3,35.6 L325.5,36.7 L323.2,38.0 L321.6,37.3 L321.1,38.4 L320.0,38.4 L319.8,37.4 L321.4,36.6 L322.0,34.5 L323.9,35.8Z M116.3,33.5 L118.0,33.6 L117.1,34.0 L115.6,33.3 L116.3,33.5Z M118.2,30.9 L115.5,30.1 L118.2,30.9Z M56.5,31.5 L54.3,31.2 L51.6,29.2 L54.2,29.7 L56.5,31.5Z M123.9,29.3 L123.2,30.2 L126.5,30.8 L126.2,31.5 L126.9,31.3 L127.3,32.5 L126.9,33.3 L125.8,33.2 L125.8,32.2 L124.6,33.1 L123.8,32.4 L120.7,32.4 L122.6,29.3 L124.6,28.4 L123.9,29.3Z M47.3,26.0 L48.2,25.9 L47.9,27.0 L48.8,27.8 L46.9,26.6 L47.3,26.0Z M323.6,29.2 L324.6,31.0 L323.2,30.7 L322.6,32.1 L323.5,33.9 L322.8,33.3 L322.1,34.0 L322.2,29.0 L321.6,28.1 L321.7,26.7 L322.6,26.2 L322.2,25.8 L323.6,29.2Z M173.2,27.7 L170.0,28.2 L170.8,27.1 L170.3,26.1 L173.3,24.8 L174.3,25.5 L173.2,27.7Z M192.7,24.4 L192.1,25.2 L190.9,24.2 L192.7,24.4Z M27.0,22.9 L26.0,23.3 L25.3,22.5 L27.9,22.4 L27.0,22.9Z M177.0,21.4 L175.9,22.5 L178.0,22.3 L176.9,24.0 L177.9,24.1 L180.5,27.1 L181.7,27.3 L181.4,28.7 L174.8,30.0 L174.2,29.8 L176.6,28.6 L174.7,28.0 L175.8,27.7 L175.4,26.5 L176.9,26.6 L177.1,26.0 L175.2,25.2 L174.9,24.2 L174.4,24.7 L173.8,23.2 L175.0,21.4 L177.0,21.4Z M14.4,20.1 L12.5,19.8 L14.4,20.1Z M100.7,17.8 L99.6,18.0 L100.7,17.8Z M98.1,17.3 L96.0,17.5 L98.1,17.3Z M8.3,16.2 L11.3,16.7 L8.3,16.2Z M94.8,14.3 L99.9,16.3 L96.9,15.9 L94.5,17.0 L92.8,16.5 L94.1,14.3 L94.8,14.3Z M165.5,13.5 L165.3,14.2 L166.4,14.9 L161.3,16.5 L157.2,16.0 L158.2,15.6 L156.0,15.1 L157.8,14.6 L155.7,14.4 L157.9,13.6 L159.4,14.3 L165.5,13.5Z M104.1,12.8 L102.8,12.4 L104.9,12.0 L104.1,12.8Z M5.0,13.4 L8.1,13.1 L10.1,14.0 L7.5,14.6 L7.0,15.8 L1.6,14.6 L1.3,13.9 L0.1,14.1 L0.6,14.6 L0.0,15.0 L0.0,11.0 L5.1,12.8 L5.0,13.4Z M84.3,10.9 L80.2,10.6 L81.8,9.9 L84.3,10.9Z M360.0,9.2 L358.7,8.9 L360.0,8.5 L360.0,9.2Z M1.3,9.1 L0.0,9.2 L0.0,8.5 L2.4,8.7 L1.3,9.1Z M89.5,10.5 L89.5,11.5 L90.8,10.7 L92.7,12.8 L94.4,11.2 L94.5,10.1 L97.4,10.3 L98.7,10.8 L98.0,11.9 L98.7,12.4 L96.7,13.6 L94.2,13.4 L92.7,15.2 L86.8,18.0 L85.3,21.0 L86.8,21.2 L87.7,22.9 L97.7,24.9 L97.9,26.7 L100.1,28.8 L101.4,27.4 L100.2,25.3 L103.5,23.5 L101.5,21.2 L102.7,20.1 L101.9,17.7 L106.2,17.6 L110.4,18.9 L110.7,21.0 L112.3,21.8 L115.4,19.7 L118.6,23.0 L118.2,23.7 L122.7,25.4 L124.2,26.7 L124.3,27.9 L120.0,29.8 L113.6,29.8 L108.9,33.2 L114.9,30.8 L115.8,31.3 L114.9,31.9 L115.5,33.8 L118.5,34.1 L119.5,33.0 L120.2,34.1 L114.6,36.5 L113.9,36.4 L113.8,35.5 L115.6,34.7 L112.9,34.9 L109.3,37.0 L110.0,38.4 L106.3,39.1 L108.0,39.1 L106.0,39.2 L105.1,41.1 L104.5,40.5 L104.9,41.6 L104.1,42.8 L103.7,40.9 L103.7,41.9 L103.0,41.8 L104.3,44.5 L98.7,48.6 L99.9,53.1 L99.6,54.8 L98.3,54.1 L97.1,50.9 L95.9,49.9 L90.8,49.7 L90.8,50.7 L89.8,50.9 L86.2,50.3 L83.4,51.7 L82.6,52.6 L82.1,57.6 L83.7,60.7 L85.6,61.9 L88.0,61.3 L89.2,60.7 L89.7,59.0 L93.0,58.5 L91.1,64.1 L95.0,64.0 L96.6,64.7 L96.2,68.9 L98.6,71.2 L100.4,70.4 L103.2,71.4 L105.1,68.9 L108.2,67.6 L108.9,67.9 L108.0,68.6 L108.3,70.9 L109.0,70.1 L108.6,69.0 L110.1,67.8 L111.8,69.5 L115.1,69.9 L118.1,69.3 L117.3,69.6 L117.6,70.0 L122.8,74.0 L126.0,74.2 L128.7,75.8 L130.0,78.3 L129.6,80.1 L131.4,80.2 L131.4,81.2 L132.2,80.6 L135.1,81.5 L135.4,82.7 L140.0,82.9 L144.4,85.2 L145.3,87.3 L144.9,89.0 L141.3,93.1 L140.7,97.9 L139.1,101.9 L138.0,103.0 L132.3,104.9 L131.1,108.7 L126.2,114.4 L123.8,114.9 L121.6,113.9 L123.2,116.9 L120.8,118.7 L117.7,118.8 L117.8,120.7 L117.2,121.0 L114.9,121.1 L115.0,122.1 L116.5,122.6 L114.8,123.5 L114.4,125.0 L112.7,125.5 L112.4,126.3 L114.4,127.2 L114.0,128.1 L110.9,130.7 L111.8,132.3 L109.2,132.9 L109.0,133.8 L105.0,132.3 L104.4,128.7 L105.9,126.9 L104.4,126.7 L105.7,124.1 L106.8,124.5 L107.3,122.4 L106.6,122.1 L106.3,123.4 L105.7,123.2 L106.8,119.3 L106.4,117.2 L108.6,112.4 L109.8,99.8 L108.5,97.4 L104.0,94.7 L100.2,87.2 L98.8,86.1 L98.6,84.7 L100.2,82.7 L99.0,82.2 L99.1,81.1 L102.9,76.2 L101.8,71.7 L100.4,71.1 L99.1,72.8 L94.3,70.1 L94.3,68.9 L92.5,66.7 L88.8,66.1 L85.3,63.8 L83.4,64.3 L76.5,61.7 L74.5,60.0 L74.0,57.2 L67.8,51.0 L66.8,48.8 L65.2,48.2 L65.3,49.8 L70.6,56.8 L70.0,57.2 L67.8,55.3 L67.7,54.0 L64.9,52.3 L65.8,51.4 L64.5,50.4 L62.7,47.0 L59.4,45.4 L55.6,39.7 L56.1,34.5 L55.3,31.8 L56.9,32.0 L57.4,32.9 L57.2,31.0 L52.6,29.2 L52.2,27.7 L50.9,27.2 L45.9,21.9 L32.9,19.1 L31.8,19.3 L32.0,20.0 L28.3,20.8 L29.4,18.7 L26.0,20.6 L26.7,21.1 L25.8,21.9 L21.6,24.0 L15.2,25.6 L22.3,22.4 L23.0,21.1 L18.0,21.3 L18.1,20.4 L16.2,20.2 L13.9,18.5 L15.4,16.9 L19.2,16.2 L18.5,15.6 L19.2,15.2 L15.0,15.5 L11.9,14.3 L15.5,13.4 L18.3,13.9 L13.2,11.6 L18.1,9.7 L23.4,8.6 L43.5,11.1 L50.9,10.2 L51.9,9.5 L54.2,10.5 L55.6,9.8 L55.7,10.6 L58.5,10.2 L66.1,11.6 L64.7,12.1 L70.0,12.0 L71.1,12.6 L72.2,12.1 L71.2,11.7 L71.8,11.3 L73.8,11.2 L78.5,12.3 L81.6,12.2 L81.4,11.6 L82.3,11.4 L83.9,11.8 L83.9,12.7 L85.8,10.9 L83.5,9.9 L83.6,8.8 L84.8,8.1 L88.5,9.8 L87.6,10.3 L89.5,10.5Z M65.8,6.9 L65.3,7.3 L70.1,7.0 L71.8,8.3 L72.3,7.9 L71.6,6.9 L73.5,6.9 L74.6,7.3 L75.5,9.0 L78.9,10.4 L77.3,10.5 L77.6,11.2 L66.7,11.5 L62.7,10.0 L67.6,9.6 L62.1,9.5 L61.6,9.1 L63.9,8.7 L60.6,8.4 L62.1,7.3 L65.8,6.9Z M75.5,6.6 L74.6,7.2 L73.1,6.5 L75.5,6.6Z M103.7,6.9 L100.5,7.3 L99.1,6.7 L103.7,6.9Z M93.4,6.8 L94.2,7.5 L97.7,6.2 L99.4,7.3 L99.2,7.9 L102.2,7.2 L105.9,8.7 L107.8,8.4 L113.0,10.8 L111.2,11.3 L118.2,13.1 L116.1,15.0 L113.3,13.6 L112.0,13.7 L111.9,14.3 L115.3,16.6 L115.0,17.3 L111.2,16.2 L113.8,18.1 L109.0,17.1 L105.2,15.3 L102.3,15.8 L101.4,15.4 L102.1,14.7 L106.0,14.5 L107.1,12.3 L101.0,9.8 L95.1,10.0 L90.1,8.8 L89.8,7.8 L90.6,6.9 L94.2,6.2 L93.4,6.8Z M79.6,6.2 L82.6,6.2 L82.0,7.0 L83.5,7.4 L83.3,8.3 L80.7,8.6 L77.5,7.5 L79.6,7.3 L78.5,6.6 L79.6,6.2Z M323.6,6.8 L319.9,6.6 L322.1,6.1 L323.6,6.8Z M86.8,7.2 L84.6,7.9 L84.0,6.6 L85.5,5.9 L89.5,6.1 L86.8,7.2Z M59.5,8.6 L56.9,9.1 L54.1,8.1 L56.1,6.3 L55.1,5.7 L62.4,5.8 L64.5,6.5 L60.8,7.5 L59.5,8.6Z M330.7,4.9 L326.1,4.8 L330.7,4.9Z M86.4,5.0 L83.2,5.1 L85.2,4.3 L86.4,5.0Z M325.1,4.4 L324.3,5.2 L319.0,5.4 L317.0,4.7 L318.8,3.9 L325.1,4.4Z M81.5,3.3 L82.3,3.7 L81.8,5.0 L77.5,4.4 L77.4,3.7 L81.5,3.3Z M71.8,3.8 L74.3,4.5 L67.8,5.6 L66.1,5.3 L68.2,4.8 L62.3,4.8 L64.6,3.5 L70.9,4.5 L69.5,3.6 L71.8,3.8Z M237.5,9.3 L233.7,9.2 L231.5,8.0 L235.9,5.4 L235.6,4.9 L241.2,3.8 L248.8,3.5 L238.5,5.7 L235.4,7.6 L235.6,8.5 L237.5,9.3Z M85.3,2.9 L90.8,4.4 L98.9,4.3 L100.2,5.1 L90.2,5.5 L87.6,5.2 L86.1,3.7 L82.9,3.2 L85.3,2.9Z M63.8,2.3 L62.9,3.5 L57.2,3.9 L60.9,2.5 L63.8,2.3Z M287.0,3.0 L294.1,4.2 L289.4,5.8 L303.2,7.0 L303.3,6.3 L307.0,6.4 L308.6,7.0 L309.1,7.6 L308.5,8.0 L311.3,9.2 L312.2,8.2 L319.9,8.5 L319.1,7.6 L320.5,7.2 L329.5,7.8 L333.0,9.2 L339.0,9.1 L339.7,10.3 L340.9,10.6 L347.8,10.4 L349.6,11.3 L350.8,11.0 L350.0,10.3 L350.4,9.9 L355.7,10.1 L360.0,11.0 L360.0,15.0 L357.4,15.4 L359.4,17.0 L359.2,17.7 L353.7,18.4 L350.3,20.1 L348.9,19.4 L343.5,20.1 L342.0,21.8 L343.2,22.4 L343.1,23.8 L341.7,24.7 L342.1,25.1 L340.4,25.7 L340.0,26.8 L338.5,27.0 L336.8,29.0 L335.4,24.6 L335.9,23.2 L343.7,18.9 L344.5,17.5 L340.1,19.5 L339.3,18.2 L336.7,18.6 L334.2,20.2 L335.0,20.9 L331.3,21.2 L331.3,20.5 L329.8,20.3 L322.2,21.0 L315.1,25.3 L318.2,26.2 L319.9,25.8 L321.4,27.8 L320.1,31.5 L318.2,33.7 L314.9,36.6 L313.5,37.2 L312.3,36.7 L307.5,40.2 L309.5,43.2 L309.1,44.9 L306.5,45.6 L306.1,43.3 L306.9,43.1 L304.7,41.9 L305.3,40.5 L304.3,40.1 L301.1,41.1 L302.2,39.6 L301.6,39.0 L298.0,40.8 L297.5,41.3 L298.9,42.5 L302.4,42.5 L302.5,43.1 L299.1,45.1 L301.9,48.3 L301.3,49.3 L302.1,50.2 L301.7,51.8 L298.7,55.5 L295.9,57.2 L290.8,58.6 L290.4,59.7 L289.9,59.7 L289.9,58.6 L288.5,58.3 L285.9,60.2 L285.7,60.9 L288.9,64.7 L289.3,66.6 L289.2,68.3 L285.2,71.4 L285.1,70.1 L283.5,69.4 L282.6,67.8 L280.8,67.4 L281.0,66.6 L280.1,66.6 L279.2,70.8 L283.0,74.5 L284.2,78.7 L281.4,77.2 L280.1,73.5 L278.5,71.6 L278.3,72.2 L278.8,68.6 L277.2,63.1 L275.4,64.3 L274.2,64.0 L274.3,61.8 L271.4,57.2 L270.5,57.2 L270.3,58.2 L267.0,58.5 L266.5,59.9 L262.2,63.4 L260.3,64.1 L259.9,69.6 L257.5,72.0 L253.5,64.0 L252.6,58.6 L250.5,59.1 L246.4,54.6 L241.5,54.9 L237.4,54.3 L236.5,52.9 L234.7,53.5 L231.5,52.1 L230.1,49.9 L228.0,50.0 L230.8,55.2 L231.0,54.0 L231.6,54.2 L231.8,56.0 L234.0,55.9 L236.4,53.6 L236.8,55.8 L239.8,57.7 L237.8,59.8 L237.7,61.1 L235.3,62.8 L232.4,63.6 L232.2,64.4 L228.7,66.0 L223.5,67.4 L222.7,63.2 L219.1,58.7 L218.5,56.3 L214.6,51.9 L214.9,50.5 L213.9,52.4 L212.4,50.1 L215.5,56.9 L216.9,58.0 L217.5,61.4 L219.3,64.1 L223.3,67.6 L222.7,68.3 L224.6,69.6 L231.1,68.0 L231.1,69.4 L227.7,75.8 L220.3,82.6 L219.2,84.7 L218.8,86.5 L220.5,90.8 L220.8,94.7 L219.4,96.7 L214.8,99.8 L215.6,103.7 L212.6,105.7 L212.2,108.8 L208.2,112.8 L205.8,113.9 L202.6,113.9 L199.6,114.8 L198.4,114.1 L198.2,111.7 L195.2,107.1 L194.3,102.1 L191.8,98.1 L191.8,95.8 L193.7,90.7 L191.9,85.0 L188.8,81.1 L189.4,76.3 L188.5,75.2 L185.9,75.7 L184.3,73.7 L178.0,75.3 L171.0,75.2 L167.6,72.7 L165.2,69.1 L163.4,67.8 L162.4,65.3 L163.5,63.9 L163.8,61.9 L163.0,58.1 L165.6,53.8 L170.4,50.1 L170.7,47.4 L173.1,45.9 L174.1,44.2 L177.8,44.8 L181.5,43.4 L189.5,42.6 L191.1,43.1 L190.3,46.2 L199.1,49.7 L200.1,49.0 L200.1,47.8 L201.5,47.2 L208.9,49.1 L211.0,48.4 L213.8,49.0 L216.0,45.4 L216.2,43.4 L212.5,43.9 L207.6,43.3 L206.2,40.5 L209.2,38.8 L213.5,38.0 L218.3,39.0 L220.4,39.0 L221.7,38.0 L216.7,34.8 L219.1,32.7 L215.0,33.7 L216.3,34.9 L213.9,35.6 L212.4,34.7 L213.3,33.9 L210.8,33.4 L207.7,37.4 L208.8,39.0 L206.4,39.9 L204.9,39.0 L203.7,39.3 L204.4,39.9 L203.9,40.0 L202.6,39.7 L204.0,42.3 L203.1,42.1 L203.2,43.6 L202.5,43.6 L199.4,39.8 L199.5,38.3 L193.1,34.3 L192.3,34.6 L192.6,35.9 L198.5,39.8 L196.9,39.6 L197.1,41.1 L196.1,42.0 L195.4,40.0 L188.9,35.6 L186.5,36.9 L183.1,36.9 L183.0,38.1 L180.8,39.0 L179.7,40.7 L180.1,41.3 L177.8,43.3 L174.6,44.0 L173.5,43.1 L171.1,43.1 L170.6,37.0 L172.0,36.2 L178.1,36.6 L178.6,36.0 L178.8,34.0 L175.5,32.0 L175.4,31.3 L178.4,31.4 L178.1,30.2 L179.0,30.6 L181.3,29.9 L181.6,29.0 L183.8,28.4 L184.7,26.9 L188.1,26.5 L188.8,26.0 L188.1,24.5 L188.5,22.9 L190.6,22.3 L190.2,23.1 L190.9,23.5 L189.7,24.5 L190.9,26.0 L192.5,25.5 L194.1,26.2 L197.6,25.1 L199.7,25.6 L201.3,24.8 L201.6,22.6 L204.1,23.0 L204.4,21.6 L203.3,20.8 L209.1,20.0 L208.1,19.5 L202.9,20.1 L201.3,19.3 L201.5,16.8 L205.4,14.9 L203.9,14.0 L202.2,14.3 L201.4,15.6 L197.8,17.2 L197.1,18.7 L198.8,19.9 L196.8,21.3 L195.9,23.9 L192.9,24.6 L190.4,20.5 L188.4,21.7 L185.7,21.4 L185.0,18.0 L190.5,15.5 L194.8,12.2 L199.2,10.2 L204.6,9.0 L208.2,8.8 L211.3,9.5 L210.0,9.8 L211.1,10.4 L216.5,10.9 L221.1,12.5 L221.1,13.2 L218.4,14.0 L213.2,13.4 L214.8,14.1 L214.9,15.6 L217.0,16.1 L216.5,15.2 L217.2,14.9 L219.6,15.5 L220.4,15.2 L219.8,14.5 L222.1,13.5 L223.9,13.9 L224.5,13.2 L223.4,11.4 L226.2,11.8 L226.8,12.3 L225.6,13.0 L226.3,13.3 L233.7,11.1 L234.5,11.2 L233.5,11.8 L238.8,11.1 L239.9,11.7 L241.1,11.1 L240.0,10.5 L240.6,10.2 L248.5,11.9 L249.2,11.4 L246.9,10.5 L246.7,9.0 L249.2,7.2 L252.6,7.2 L251.8,8.6 L252.8,9.6 L252.6,11.0 L253.7,11.6 L251.3,13.7 L252.4,13.8 L255.1,12.2 L254.5,11.7 L254.9,11.0 L253.6,10.4 L254.4,9.4 L253.1,8.5 L254.9,7.9 L254.7,7.2 L255.7,7.7 L255.3,8.7 L256.4,8.8 L255.9,8.1 L257.6,7.7 L261.5,8.2 L260.5,6.3 L266.8,6.1 L266.0,5.5 L267.2,4.9 L280.8,3.6 L284.4,2.3 L287.0,3.0Z M229.1,38.7 L230.4,39.7 L229.6,39.8 L228.9,41.2 L229.2,42.4 L233.8,43.0 L233.9,41.0 L232.7,40.0 L232.9,39.1 L234.7,39.0 L233.7,37.9 L232.8,38.9 L232.5,37.2 L230.3,35.4 L233.0,34.7 L233.0,33.1 L229.1,33.6 L226.7,35.4 L229.1,38.7Z M86.2,2.5 L83.6,2.2 L86.2,2.5Z M69.8,2.3 L66.5,2.3 L69.8,2.3Z M204.7,2.2 L200.7,2.3 L201.4,2.1 L200.8,1.8 L202.9,1.5 L204.7,2.2Z M70.3,1.4 L67.5,1.6 L70.3,1.4Z M84.2,1.9 L81.9,1.9 L81.4,1.1 L84.2,1.9Z M79.9,1.7 L80.3,2.1 L74.8,1.6 L75.8,1.3 L74.5,0.7 L79.9,1.7Z M285.1,1.7 L279.4,2.1 L282.1,0.7 L285.4,1.3 L285.1,1.7Z M198.2,0.3 L201.5,1.0 L199.0,1.4 L197.1,3.2 L195.9,3.2 L190.4,0.3 L198.2,0.3Z M207.2,0.0 L203.0,0.6 L198.1,0.0Z M279.9,1.1 L275.0,1.0 L272.7,0.0 L279.7,0.0 L279.9,1.1Z M93.0,0.3 L94.2,0.7 L89.2,1.8 L83.5,0.0 L93.0,0.3Z M109.2,0.0 L103.1,0.7 L104.5,0.8 L103.8,1.0 L104.6,1.5 L100.2,2.8 L102.1,3.2 L99.4,3.8 L90.5,3.5 L92.2,2.8 L91.7,2.1 L95.0,2.5 L92.0,1.6 L94.9,0.7 L93.3,0.0Z M162.1,0.0 L160.3,1.2 L160.3,2.4 L161.5,3.0 L158.3,3.4 L160.2,3.9 L160.4,4.8 L159.3,4.8 L160.6,5.7 L156.4,6.7 L157.7,7.8 L155.2,7.7 L157.9,8.5 L158.2,9.3 L156.5,9.5 L154.5,8.6 L154.8,9.2 L153.6,9.8 L157.7,9.9 L140.2,14.5 L138.8,16.5 L137.2,17.3 L137.6,18.1 L136.6,19.9 L135.2,20.0 L131.7,19.1 L128.4,16.4 L126.0,12.8 L129.1,10.1 L125.3,10.4 L125.6,9.2 L128.6,9.4 L124.2,8.3 L125.3,7.4 L121.4,4.5 L111.5,3.9 L108.6,3.0 L113.2,2.6 L106.7,2.0 L114.7,0.2 L112.9,0.0Z"/></svg>
