<svg xmlns="http://www.w3.org/2000/svg"><path id="land" d="M762.2,883.6 L771.0,882.5 L779.7,884.1 L788.7,884.1 L797.8,893.0 L799.2,895.7 L800.0,916.8 L757.5,916.8 L737.2,896.3 L730.2,882.2 L731.2,878.7 L730.8,874.7 L735.0,872.8 L740.7,873.3 L746.0,876.0 L753.2,882.0 L762.2,883.6Z M349.5,760.1 L356.2,760.4 L367.7,772.0 L373.5,782.7 L375.5,783.8 L380.0,791.1 L380.8,795.1 L384.3,797.3 L385.5,804.9 L391.8,814.8 L396.8,828.0 L396.5,838.6 L394.2,846.4 L391.0,851.2 L382.8,857.4 L368.0,863.4 L362.5,864.2 L356.7,862.6 L352.5,858.8 L346.5,840.4 L342.7,804.0 L343.8,801.1 L344.5,808.4 L348.5,790.3 L348.3,784.6 L352.5,776.3 L352.3,766.3 L358.0,769.3 L360.8,769.0 L356.5,765.5 L351.2,764.4 L348.8,762.0 L349.5,760.1Z M734.0,868.0 L732.0,868.2 L730.5,865.8 L734.0,866.1 L734.0,868.0Z M697.2,840.4 L695.7,842.6 L692.7,835.9 L691.5,835.3 L692.0,831.0 L695.5,829.4 L698.3,836.7 L697.2,840.4Z M693.3,826.2 L691.0,828.9 L690.0,827.2 L692.2,824.8 L693.3,826.2Z M678.5,802.2 L679.3,803.2 L676.5,801.6 L677.5,799.5 L678.5,802.2Z M686.0,812.1 L684.3,812.1 L682.8,810.0 L683.2,808.6 L684.5,808.4 L686.0,812.1Z M688.5,807.3 L687.0,808.4 L686.5,804.3 L687.2,803.0 L688.2,803.2 L688.5,807.3Z M669.8,778.2 L668.0,777.4 L669.0,775.5 L669.8,778.2Z M662.5,740.1 L661.8,741.0 L659.3,740.1 L658.7,734.8 L662.8,730.7 L664.2,736.1 L662.5,740.1Z M667.2,717.8 L665.0,717.5 L666.0,714.3 L667.2,717.8Z M675.5,700.0 L676.5,703.7 L674.0,701.0 L675.5,700.0Z M668.0,677.9 L667.2,679.5 L667.7,675.2 L668.0,677.9Z M668.0,713.5 L666.8,713.5 L663.3,704.6 L665.2,702.4 L667.0,695.9 L669.8,694.8 L668.0,691.3 L668.0,686.5 L668.5,680.0 L670.8,674.1 L671.5,664.4 L673.0,660.9 L676.5,659.3 L677.0,663.3 L675.5,664.9 L676.7,668.2 L672.2,675.7 L674.2,678.1 L674.7,686.5 L673.3,688.9 L671.5,689.2 L672.0,694.8 L668.8,701.3 L670.0,704.6 L668.0,713.5Z M800.0,693.5 L798.5,691.6 L800.0,690.5Z M789.5,586.5 L787.0,584.8 L786.8,580.8 L788.5,579.4 L790.0,581.6 L789.5,586.5Z M720.0,598.0 L718.3,598.0 L720.8,595.1 L720.0,598.0Z M712.0,594.5 L710.2,597.2 L709.8,593.5 L715.0,587.5 L714.2,592.7 L712.0,594.5Z M692.2,520.9 L687.2,515.8 L693.5,515.8 L692.2,520.9Z M687.2,488.3 L687.8,492.1 L686.0,490.5 L685.2,486.7 L687.2,488.3Z M675.3,487.5 L675.5,489.9 L672.7,485.3 L672.7,482.9 L675.3,487.5Z M692.7,497.2 L698.8,500.7 L697.5,503.4 L694.0,503.4 L693.3,501.0 L691.0,498.8 L692.7,497.2Z M646.8,436.0 L646.0,438.2 L646.2,433.3 L646.8,436.0Z M648.8,444.6 L646.5,444.1 L646.5,439.2 L648.3,439.0 L648.8,444.6Z M628.8,426.6 L626.0,428.4 L627.0,417.4 L629.5,423.9 L628.8,426.6Z M639.0,421.2 L636.8,421.2 L635.2,418.5 L636.5,414.7 L639.0,421.2Z M616.0,405.5 L616.5,406.6 L613.5,404.2 L614.5,403.4 L616.0,405.5Z M619.5,429.0 L613.0,429.5 L617.0,422.5 L616.3,416.9 L614.0,414.7 L612.5,408.8 L615.0,408.2 L616.8,409.6 L618.5,414.2 L621.8,418.5 L620.8,427.1 L619.5,429.0Z M349.2,765.0 L347.7,765.2 L346.5,762.3 L349.2,765.0Z M346.8,780.6 L347.5,782.7 L343.8,779.2 L346.8,780.6Z M0.0,0.0 L800.0,0.0 L800.0,638.2 L797.8,629.6 L798.3,628.2 L800.0,628.8 L798.5,626.6 L796.8,627.2 L795.3,623.9 L792.7,596.4 L789.5,592.7 L790.7,580.8 L793.3,577.8 L784.5,579.2 L780.2,569.2 L780.0,563.5 L771.2,555.4 L772.7,558.1 L771.2,560.8 L772.7,565.4 L769.2,574.1 L765.5,578.1 L760.8,579.7 L757.0,577.0 L756.2,572.4 L754.8,572.4 L756.0,577.8 L758.0,581.3 L751.0,584.0 L750.3,586.5 L744.0,588.6 L742.0,593.7 L734.8,600.7 L732.5,599.7 L734.0,593.5 L733.7,590.5 L729.5,597.8 L723.5,598.0 L722.2,588.3 L720.0,594.0 L716.5,595.9 L717.5,579.4 L716.8,584.0 L711.0,590.8 L707.5,592.9 L705.5,592.7 L706.7,579.2 L708.7,575.9 L711.8,562.5 L714.0,557.9 L714.8,550.9 L710.8,533.9 L704.3,519.6 L706.2,519.3 L701.7,515.3 L701.0,504.5 L698.5,508.3 L699.2,512.3 L698.3,515.0 L692.7,511.5 L687.2,502.3 L689.5,501.5 L693.3,505.0 L695.5,505.8 L699.0,503.4 L700.0,500.4 L696.0,498.0 L693.5,493.4 L690.2,491.3 L692.7,487.8 L689.5,487.8 L685.2,484.3 L681.2,483.5 L679.0,484.3 L680.0,488.0 L679.7,489.4 L678.2,489.1 L675.0,483.5 L677.5,480.5 L675.5,480.2 L676.7,475.1 L676.0,474.3 L672.0,481.3 L670.8,480.5 L669.8,479.7 L672.2,476.2 L668.5,470.2 L668.0,477.3 L657.8,464.0 L651.5,453.8 L650.3,440.0 L645.5,425.2 L646.5,422.0 L645.0,423.3 L638.2,412.3 L637.0,407.7 L630.5,414.2 L623.8,415.2 L616.5,403.6 L615.0,388.5 L614.0,393.1 L606.7,392.0 L609.8,394.5 L613.0,395.0 L614.8,397.2 L615.0,400.9 L611.8,403.1 L613.8,407.1 L611.5,407.7 L611.0,411.2 L615.5,421.7 L614.8,424.4 L609.0,430.1 L605.8,436.0 L604.0,436.3 L601.7,434.4 L602.3,430.9 L605.2,427.1 L598.8,430.9 L598.0,428.2 L597.2,423.1 L599.7,418.7 L597.0,420.9 L595.3,432.0 L589.2,437.6 L587.0,423.9 L587.5,433.8 L583.7,439.0 L580.8,439.0 L577.3,434.9 L576.2,429.0 L575.8,433.0 L573.8,433.0 L575.5,436.0 L576.2,440.9 L572.7,440.9 L571.5,438.4 L568.8,442.7 L567.2,438.7 L568.5,431.1 L566.0,428.2 L564.2,436.0 L564.5,440.6 L561.2,441.9 L557.3,437.9 L556.2,441.7 L553.0,441.1 L551.5,439.8 L555.0,427.6 L549.7,424.1 L548.5,421.4 L549.0,424.4 L554.0,428.2 L548.8,436.0 L542.0,440.9 L527.5,444.9 L521.5,451.9 L521.0,455.4 L524.5,466.5 L519.0,474.0 L518.8,477.0 L512.5,480.8 L509.5,485.1 L506.3,484.0 L507.8,485.6 L505.5,488.0 L489.5,493.7 L487.5,493.4 L489.0,492.1 L489.0,488.8 L487.5,488.3 L481.2,491.8 L479.5,496.4 L484.3,494.0 L486.0,495.3 L480.8,498.6 L469.2,508.8 L467.2,513.4 L452.5,531.4 L441.3,537.4 L430.0,549.8 L409.0,563.5 L407.0,567.8 L409.0,572.2 L406.5,578.1 L394.0,584.3 L385.0,583.2 L382.3,584.0 L378.2,594.3 L375.8,596.4 L374.5,599.7 L370.7,599.4 L369.5,596.7 L366.3,595.9 L359.5,598.9 L357.3,601.0 L352.5,611.5 L351.2,618.3 L354.5,634.2 L352.8,641.5 L357.8,660.9 L354.0,654.9 L351.5,657.6 L358.5,664.4 L355.8,682.4 L353.5,688.9 L346.5,701.3 L343.8,712.4 L344.8,715.9 L342.2,719.7 L345.0,718.8 L346.2,722.6 L346.0,746.3 L338.3,746.1 L332.8,748.0 L331.2,750.4 L331.5,753.9 L325.0,763.6 L323.0,769.8 L325.5,773.0 L332.0,774.4 L335.2,776.8 L324.5,774.7 L310.5,779.0 L304.7,784.9 L303.2,795.1 L301.5,798.7 L288.0,806.7 L282.5,804.9 L274.2,797.8 L263.7,784.6 L258.0,769.8 L256.0,756.9 L258.5,759.6 L259.5,767.4 L261.5,767.4 L258.7,757.1 L255.0,752.5 L255.0,749.6 L248.0,733.9 L243.0,718.3 L238.0,709.1 L230.0,699.4 L223.8,685.9 L219.2,671.9 L216.8,656.0 L212.5,645.8 L209.5,633.9 L198.8,618.3 L197.0,611.8 L195.0,609.4 L198.3,609.4 L194.2,604.8 L195.7,602.4 L193.3,602.4 L192.0,601.0 L187.0,591.8 L183.5,580.8 L179.0,549.5 L174.7,536.6 L172.0,522.0 L175.3,511.8 L174.2,508.3 L170.7,512.8 L170.0,510.1 L170.3,504.2 L174.7,504.8 L169.8,502.6 L169.0,500.2 L170.0,498.3 L168.3,496.7 L166.8,489.9 L172.2,467.3 L170.3,455.1 L167.2,453.5 L165.5,448.4 L168.3,445.7 L165.2,446.0 L170.3,441.7 L177.8,438.2 L171.0,439.8 L163.5,439.5 L164.8,434.6 L167.5,432.2 L163.0,432.0 L163.7,427.1 L170.3,425.2 L164.8,423.9 L154.5,424.1 L157.8,426.3 L156.7,429.0 L151.0,436.3 L155.2,438.7 L156.5,440.6 L156.2,444.1 L150.5,454.1 L125.5,465.4 L118.0,465.4 L112.2,462.7 L100.8,453.5 L93.8,444.6 L79.7,431.7 L74.2,423.6 L74.5,420.9 L76.2,419.6 L82.0,423.6 L88.7,420.4 L91.5,420.6 L93.3,418.7 L95.5,419.3 L100.3,416.6 L104.5,416.0 L111.0,405.3 L112.8,404.5 L112.2,402.0 L108.5,406.1 L103.0,405.8 L91.5,410.9 L81.0,408.5 L70.5,403.1 L66.0,399.3 L60.5,389.1 L69.5,381.5 L55.8,388.3 L54.3,381.3 L53.0,384.2 L51.0,381.5 L48.8,382.1 L46.5,380.2 L45.5,382.1 L41.8,382.6 L41.3,379.6 L39.0,380.7 L32.8,372.9 L29.3,357.0 L17.5,354.3 L17.5,344.3 L13.3,337.6 L8.0,334.3 L5.5,334.6 L3.2,337.3 L9.0,336.8 L11.7,338.4 L0.0,338.9Z M169.5,722.6 L169.8,721.0 L169.5,722.6Z M176.7,801.6 L175.5,801.6 L177.0,800.3 L176.7,801.6Z M187.8,912.4 L186.7,912.2 L188.0,910.0 L187.8,912.4Z"/><path id="border" d="M576.5,428.2 L576.7,431.1 M577.0,432.2 L575.8,434.9 M575.8,435.2 L578.2,440.9 M54.5,381.8 L52.7,387.2 M760.8,242.4 L762.5,244.3 M763.0,246.2 L763.3,246.4 M763.3,246.4 L763.5,246.7 M764.5,248.1 L764.8,248.6 M774.2,260.7 L778.0,259.9 M778.8,260.5 L779.0,260.7 M780.0,261.3 L780.2,261.5 M781.0,262.4 L781.2,262.6 M781.8,262.9 L782.0,263.2 M782.0,263.2 L782.5,263.4 M782.5,263.4 L783.0,263.7 M640.7,273.7 L646.5,276.4 M646.5,276.4 L646.5,276.6 M646.8,276.9 L648.5,276.9 M658.0,274.8 L658.7,275.0 M659.3,274.8 L660.5,274.2 M660.5,274.5 L662.2,273.9 M668.0,269.6 L666.8,266.4 M668.0,265.3 L669.5,264.8 M670.5,264.8 L675.0,261.8 M682.8,254.3 L685.5,251.8 M685.5,251.8 L686.0,251.6 M686.0,251.6 L689.0,251.3 M690.7,251.6 L693.8,251.0 M699.7,248.1 L701.7,245.9 M701.7,245.9 L704.3,244.6 M705.0,244.6 L706.7,244.0 M707.3,243.2 L708.2,241.6 M708.2,241.6 L706.7,240.0 M706.7,239.7 L707.3,238.6 M708.5,238.6 L712.2,237.0 M713.0,236.5 L716.5,234.3 M716.5,234.3 L716.8,234.3 M718.5,236.2 L718.8,236.2 M718.8,236.2 L719.0,236.7 M720.0,238.1 L720.5,238.1 M724.2,238.4 L725.3,238.6 M727.8,239.7 L729.2,240.0 M737.8,237.5 L743.5,235.7 M743.8,235.4 L743.8,234.9 M743.8,234.3 L745.2,233.2 M746.0,233.8 L748.3,233.2 M748.3,233.2 L748.5,233.2 M752.0,232.7 L754.2,234.6 M754.2,234.6 L754.8,235.4 M756.7,236.2 L757.5,238.1 M640.7,273.7 L640.5,271.0 L631.7,267.7 L627.3,270.4 L612.0,267.7 M571.8,297.4 L572.7,297.1 M574.5,298.8 L574.7,298.8 M578.2,301.7 L579.0,301.7 M579.7,301.7 L580.0,301.7 M581.0,301.5 L582.8,300.6 M583.0,300.6 L583.7,300.6 M586.8,302.0 L587.5,302.0 M591.3,304.1 L591.8,303.9 M595.7,304.4 L596.8,304.1 M598.3,304.1 L605.5,300.6 M606.7,300.6 L609.0,299.3 M625.5,302.3 L627.0,302.0 M633.2,302.5 L635.2,300.1 L638.2,302.0 M638.8,302.0 L639.8,301.7 M643.0,301.7 L643.3,301.7 M644.0,301.2 L645.2,300.4 M650.3,300.6 L652.0,298.2 L650.0,294.7 L651.2,289.9 M652.0,289.3 L652.0,288.2 M651.2,286.1 L650.5,284.5 M650.5,284.5 L649.7,283.9 M648.5,284.2 L641.5,283.7 M641.3,283.4 L641.0,283.1 M640.5,282.6 L640.0,282.0 M639.5,280.4 L639.2,279.9 M639.8,278.5 L640.7,273.7 M564.8,266.7 L565.2,266.7 M563.0,268.6 L564.0,267.5 M564.2,267.2 L564.8,266.7 M554.5,271.0 L555.2,270.7 M555.2,270.7 L555.8,270.7 M556.0,270.7 L557.8,270.4 M559.5,270.2 L562.0,268.6 M553.0,273.4 L553.2,271.0 M664.2,451.6 L666.0,450.3 L664.5,432.0 M658.0,446.0 L661.8,448.7 M657.0,447.1 L658.0,446.0 M656.2,447.1 L657.0,447.1 M656.7,456.8 L654.2,453.5 L656.2,447.1 M662.5,448.4 L664.2,451.6 M661.8,448.7 L662.5,448.4 M222.3,20.8 L229.0,16.2 L222.3,10.8 L224.2,6.2 L222.0,0.0 M219.8,21.3 L218.0,18.9 M218.0,18.9 L215.5,20.8 M215.5,20.8 L214.8,20.5 M214.8,20.5 L210.5,22.4 M222.3,20.8 L219.8,21.3 M210.5,22.4 L209.5,22.4 M209.5,22.4 L213.5,26.4 M213.0,16.7 L212.8,16.7 M213.3,16.7 L213.0,16.7 M216.5,16.4 L213.3,16.7 M222.3,20.8 L216.5,16.4 M356.2,200.3 L356.2,200.6 M358.0,200.9 L358.5,201.1 M358.5,201.1 L359.0,201.4 M364.5,203.0 L364.5,203.3 M367.2,204.7 L367.5,204.7 M373.3,208.4 L373.5,208.4 M363.2,203.3 L364.5,203.0 M57.0,0.0 L45.7,12.7 L44.5,21.8 M131.5,2.2 L131.7,0.0 M107.5,0.0 L105.2,1.9 M142.5,35.6 L138.7,33.2 L135.8,25.1 L140.0,2.7 L137.5,1.3 M137.5,1.3 L133.5,3.0 M105.2,1.9 L104.3,1.3 M104.3,1.3 L106.0,10.2 M133.5,3.0 L131.7,1.9 M131.7,1.9 L131.5,2.2 M101.2,12.4 L97.5,10.2 M97.5,10.2 L95.0,11.3 M106.0,10.2 L103.2,12.7 M95.0,11.3 L93.8,10.8 M93.8,10.8 L91.5,11.3 M91.5,11.3 L88.3,11.1 M88.3,11.1 L84.5,15.1 L86.3,20.5 L81.3,24.3 M103.2,12.7 L101.0,12.1 M101.0,12.1 L101.2,12.4 M191.8,15.4 L187.2,14.0 M187.2,14.0 L184.5,14.8 M184.5,14.8 L183.0,14.3 M183.0,14.3 L180.0,16.2 M190.5,20.8 L193.8,17.5 L193.0,15.4 M193.0,15.4 L191.8,15.4 M208.0,15.9 L208.0,15.4 M208.0,15.4 L207.0,16.2 M210.5,16.4 L208.5,15.6 M208.5,15.6 L208.0,15.9 M180.0,16.2 L179.5,15.9 M179.5,15.9 L169.0,21.8 L166.5,26.2 L161.7,27.0 M207.0,16.2 L206.2,16.2 M206.2,16.2 L194.5,20.8 M212.8,16.7 L211.3,16.4 M211.3,16.4 L210.5,16.4 M81.3,24.3 L72.3,17.8 M72.3,17.8 L72.5,19.4 M72.5,19.4 L71.0,18.1 M71.0,18.1 L70.5,20.2 M68.3,19.7 L67.2,19.4 M67.2,19.4 L59.3,24.3 M70.5,20.2 L68.8,19.4 M68.8,19.4 L68.3,19.7 M192.7,21.0 L191.5,20.5 M191.5,20.5 L190.5,20.8 M194.5,20.8 L193.8,20.8 M193.8,20.8 L192.7,21.0 M50.8,28.9 L44.5,21.8 M59.3,24.3 L57.8,24.0 M57.8,24.0 L57.0,26.7 M57.0,26.7 L55.2,26.4 M55.2,26.4 L50.8,28.9 M161.7,27.0 L160.2,26.7 M160.2,26.7 L142.5,35.6 M4.3,16.7 L0.0,14.3 M8.0,18.1 L5.2,16.7 M5.2,16.7 L4.3,16.7 M13.0,17.3 L11.3,18.3 M11.3,18.3 L10.2,17.5 M10.2,17.5 L8.0,18.1 M31.5,21.8 L24.0,16.4 M24.0,16.4 L17.2,17.8 M17.2,17.8 L14.0,17.0 M14.0,17.0 L13.0,17.3 M39.0,21.0 L37.5,19.4 M37.5,19.4 L31.5,21.8 M42.2,20.8 L40.7,20.2 M40.7,20.2 L39.0,21.0 M44.5,21.8 L43.3,20.8 M43.3,20.8 L42.2,20.8 M390.2,204.4 L394.5,206.0 M387.8,206.8 L390.2,204.4 M385.2,205.5 L387.8,206.8 M382.8,212.2 L385.2,205.5 M396.0,205.7 L397.2,206.3 M394.5,206.0 L396.0,205.7 M398.0,206.0 L399.5,206.8 M397.2,206.3 L398.0,206.0 M401.2,206.5 L404.3,214.1 M399.5,206.8 L401.2,206.5 M375.3,210.6 L377.5,215.2 M382.3,212.2 L382.8,212.2 M379.7,215.7 L382.3,212.2 M405.2,214.1 L409.0,215.7 M404.3,214.1 L405.2,214.1 M378.8,215.2 L379.7,215.7 M377.5,215.2 L378.8,215.2 M409.5,215.7 L416.0,220.3 M409.0,215.7 L409.5,215.7 M416.8,220.0 L421.0,224.9 M416.0,220.3 L416.8,220.0 M422.5,224.1 L423.5,224.9 M421.0,224.9 L422.5,224.1 M424.0,224.6 L426.5,227.0 M423.5,224.9 L424.0,224.6 M428.8,225.7 L431.5,230.0 M426.5,227.0 L428.8,225.7 M433.2,229.5 L438.0,237.5 L441.0,238.6 M431.5,230.0 L433.2,229.5 M448.8,234.9 L449.5,235.7 M444.2,236.5 L448.8,234.9 M450.0,235.4 L451.0,235.9 M449.5,235.7 L450.0,235.4 M451.7,235.7 L453.2,237.0 M451.0,235.9 L451.7,235.7 M443.8,236.5 L444.2,236.5 M441.0,238.6 L443.8,236.5 M453.5,237.0 L456.0,245.4 L462.0,250.0 M453.2,237.0 L453.5,237.0 M462.5,250.0 L470.5,255.1 M462.0,250.0 L462.5,250.0 M476.2,252.4 L479.3,254.0 L477.0,257.8 L478.2,261.8 M473.0,255.1 L476.2,252.4 M472.0,255.1 L473.0,255.1 M470.5,255.1 L472.0,255.1 M492.2,260.5 L499.5,272.6 M490.0,262.9 L492.2,260.5 M479.3,261.5 L481.5,262.4 M478.2,261.8 L479.3,261.5 M485.8,261.5 L487.0,262.1 M484.0,262.6 L485.8,261.5 M488.0,262.1 L490.0,262.9 M487.0,262.1 L488.0,262.1 M482.8,262.1 L484.0,262.6 M481.5,262.4 L482.8,262.1 M504.0,265.3 L505.0,269.6 L508.5,271.3 M502.3,269.9 L504.0,265.3 M516.5,266.7 L519.2,269.4 M515.2,267.5 L516.5,266.7 M514.2,266.7 L515.2,267.5 M510.8,272.1 L514.2,266.7 M521.0,269.4 L523.5,271.3 M519.2,269.4 L521.0,269.4 M501.2,272.6 L502.3,269.9 M524.7,271.0 L529.5,274.5 M523.5,271.3 L524.7,271.0 M509.0,271.0 L510.8,272.1 M508.5,271.3 L509.0,271.0 M546.0,272.1 L549.5,272.9 M542.5,274.8 L546.0,272.1 M550.8,272.6 L553.0,273.4 M549.5,272.9 L550.8,272.6 M500.8,272.6 L501.2,272.6 M499.5,272.6 L500.8,272.6 M534.0,273.4 L534.3,275.0 M532.3,274.5 L534.0,273.4 M538.2,273.9 L539.8,275.0 M534.3,275.0 L538.2,273.9 M530.8,274.2 L532.3,274.5 M529.5,274.5 L530.8,274.2 M541.0,274.5 L542.5,274.8 M539.8,275.0 L541.0,274.5 M356.2,230.5 L356.5,230.5 M360.0,221.6 L360.2,221.6 M360.2,221.6 L361.7,221.1 M365.0,216.8 L366.0,216.8 M782.3,272.9 L783.2,272.6 M783.0,268.0 L782.8,267.7 M782.0,272.1 L782.3,272.9 M777.8,294.4 L778.2,293.9 M775.5,276.6 L775.8,276.6 M775.8,276.6 L776.0,276.6 M767.5,286.9 L776.0,294.2 M766.0,287.4 L767.0,286.9 M765.0,287.2 L766.0,287.4 M762.2,288.8 L762.8,288.8 M763.5,288.5 L764.0,288.0 M760.5,288.5 L762.2,288.8 M739.2,301.5 L739.5,301.5 M741.3,299.6 L742.2,299.6 M745.0,296.6 L746.0,296.3 M755.2,289.3 L756.2,289.3 M757.0,289.0 L758.2,288.8 M777.0,293.9 L777.8,294.4 M776.0,294.2 L776.5,294.2 M776.7,293.9 L777.0,293.9 M738.2,301.5 L739.2,301.5 M731.5,306.0 L732.3,305.8 M738.0,301.5 L738.2,301.5 M730.5,305.5 L731.5,306.0 M713.8,358.3 L714.0,358.3 M718.8,337.3 L719.0,337.3 M729.2,306.6 L729.5,306.3 M683.7,375.1 L686.8,378.6 M681.2,404.5 L681.8,404.2 M683.5,402.8 L683.5,402.6 M683.7,402.6 L684.3,401.2 M684.3,401.2 L684.3,400.9 M684.5,400.7 L684.3,399.6 M684.5,399.1 L684.5,398.8 M684.5,398.2 L684.5,398.0 M684.5,397.7 L685.2,390.2 M685.5,389.9 L685.5,389.1 M685.5,389.1 L685.5,388.5 M685.8,388.3 L685.8,386.4 M685.8,385.8 L685.5,385.6 M685.5,385.6 L685.2,385.3 M683.2,375.3 L683.7,375.1 M692.0,377.2 L692.2,377.2 M693.3,377.5 L695.0,379.1 M689.0,378.3 L689.2,378.3 M690.5,377.2 L690.7,377.2 M688.7,378.3 L689.0,378.3 M686.8,378.6 L687.2,378.6 M697.0,379.1 L699.5,379.6 M699.5,379.6 L701.2,380.5 M701.2,380.5 L703.0,381.8 M679.5,402.8 L679.7,402.8 M680.0,403.1 L680.2,403.4 M681.0,404.2 L681.2,404.5 M678.0,409.8 L678.8,403.1 M677.8,409.8 L678.0,409.8 M678.5,424.9 L679.3,424.7 M677.5,410.1 L677.8,409.8 M676.5,426.0 L678.0,426.6 M674.0,431.7 L674.5,431.4 M667.5,427.4 L668.3,427.9 M668.3,427.9 L672.0,432.5 M664.5,432.0 L665.2,431.4 M673.3,430.9 L673.5,431.1 M673.5,431.1 L674.0,431.7 M672.0,432.5 L672.5,431.7 M799.7,495.0 L800.0,495.0 M794.8,504.8 L796.0,497.2 L799.7,495.0 M794.5,504.8 L794.8,504.8 M793.5,523.9 L791.5,514.2 L795.3,509.3 L794.5,504.8 M792.2,524.2 L793.5,523.9 M791.0,524.2 L792.2,524.2 M787.8,526.1 L791.0,524.2 M783.7,524.4 L786.0,526.1 M788.2,532.0 L783.7,524.4 M786.5,526.1 L787.8,526.1 M786.0,526.1 L786.5,526.1 M792.5,537.6 L789.2,530.4 M789.2,530.4 L788.2,532.0 M800.0,553.3 L794.2,547.9 L792.5,537.6 M788.7,255.1 L790.2,256.7 M785.5,261.8 L788.7,255.1 M791.8,255.9 L795.0,260.5 M790.2,256.7 L791.8,255.9 M796.5,259.7 L800.0,262.6 M795.0,260.5 L796.5,259.7 M785.0,261.8 L785.5,261.8 M783.0,263.7 L785.0,261.8 M800.0,343.0 L797.2,344.9 M797.2,344.9 L795.5,343.5 M795.5,343.5 L792.5,348.6 L793.3,355.1 M793.3,355.1 L792.2,355.1 M792.2,355.1 L788.5,357.3 L788.0,365.9 M790.5,365.6 L792.7,374.0 L788.0,379.1 L790.5,381.5 M788.0,365.9 L790.5,365.6 M790.5,381.5 L800.0,375.9 M664.5,432.0 L656.0,385.0 M655.2,386.7 L653.8,384.8 M653.8,384.8 L653.5,384.8 M651.2,386.9 L649.0,385.8 M649.0,385.6 L648.8,385.3 M644.5,402.6 L644.2,402.6 M642.5,404.7 L642.2,404.7 M641.5,405.0 L641.0,405.0 M640.0,405.8 L635.2,397.7 M634.3,402.6 L629.0,386.9 M629.2,386.7 L629.0,385.8 M628.8,385.8 L629.2,384.2 M629.5,384.2 L632.5,377.8 M633.2,377.8 L634.3,374.8 M637.8,375.1 L641.3,372.6 M643.0,373.4 L643.5,371.3 M644.5,371.6 L645.2,371.6 M647.0,373.2 L648.3,368.3 M648.8,368.0 L649.2,367.5 M652.0,367.2 L656.0,353.2 M662.0,354.0 L662.2,353.8 M662.2,352.7 L662.0,352.4 M662.0,352.4 L661.8,352.1 M661.5,351.6 L660.8,351.3 M660.5,351.1 L657.8,348.6 M657.3,348.4 L654.5,347.3 M654.0,347.0 L651.0,345.7 M650.5,345.7 L649.7,345.7 M649.2,345.9 L646.8,345.9 M646.8,345.9 L646.5,345.9 M646.2,345.9 L644.5,345.9 M644.2,345.9 L643.5,345.9 M643.0,346.5 L642.5,346.5 M641.8,346.7 L641.0,347.3 M641.0,347.3 L639.2,346.2 M638.0,346.5 L637.5,346.7 M637.5,346.7 L636.8,347.0 M636.8,347.0 L631.0,345.1 M630.5,345.1 L628.5,345.4 M628.2,345.4 L618.8,345.9 M618.3,346.2 L615.7,345.9 M615.5,345.9 L612.5,345.9 M610.2,346.5 L597.2,342.4 M596.5,342.7 L595.7,326.0 L592.5,319.5 M592.5,319.5 L591.5,318.7 M591.5,318.7 L591.3,317.6 M591.3,317.6 L590.7,317.4 M590.2,318.7 L590.2,319.0 M588.7,324.4 L584.8,323.0 M584.3,323.3 L578.2,320.1 L577.5,314.9 M577.5,314.7 L573.8,311.7 M573.8,314.4 L574.0,314.7 M574.7,315.7 L575.0,315.7 M576.0,316.8 L575.8,317.1 M575.8,317.1 L571.5,316.3 M571.0,317.4 L568.0,316.0 M567.7,316.0 L567.2,316.3 M566.8,316.3 L566.8,315.7 M567.0,315.7 L567.0,315.5 M567.5,315.2 L567.7,314.4 M567.5,314.1 L565.0,311.2 M564.0,310.9 L560.0,307.4 M560.0,307.1 L559.8,307.1 M558.5,310.9 L559.0,310.6 M562.5,313.9 L562.2,314.1 M562.0,313.9 L561.0,314.1 M557.3,318.2 L557.0,318.2 M556.5,318.4 L556.0,318.4 M555.0,319.2 L554.8,319.2 M554.8,329.0 L555.2,329.0 M555.2,329.0 L555.8,329.0 M567.2,337.9 L567.7,337.3 M568.5,337.3 L569.2,337.0 M573.3,342.4 L574.0,342.4 M574.2,343.5 L573.8,343.8 M573.0,345.9 L570.8,345.4 M570.0,345.9 L565.0,345.4 M564.5,345.7 L561.0,345.4 M559.3,352.1 L558.5,353.2 M558.0,353.8 L554.0,352.1 M553.8,352.4 L553.5,352.4 M553.5,354.6 L553.5,354.8 M553.0,355.4 L552.8,355.6 M552.0,356.7 L551.7,357.0 M551.0,358.6 L550.5,359.7 M551.2,360.2 L552.0,361.8 M554.8,364.8 L555.2,365.1 M557.0,365.9 L559.8,367.5 M563.7,369.1 L564.0,369.1 M566.3,369.1 L568.3,369.4 M568.3,369.4 L568.5,369.9 M568.5,370.2 L568.3,372.4 M567.7,379.6 L567.5,379.9 M566.8,380.7 L566.5,380.7 M566.3,381.0 L565.2,381.0 M565.0,381.0 L564.5,381.3 M568.5,391.5 L569.2,391.2 M569.2,391.2 L569.2,391.5 M569.2,398.5 L570.2,398.0 M570.5,398.0 L571.0,398.0 M571.0,398.2 L571.2,398.2 M573.8,399.6 L573.3,400.1 M571.2,405.8 L571.5,406.1 M573.5,410.4 L573.3,410.7 M573.3,410.7 L573.0,410.9 M573.5,413.9 L573.8,414.7 M573.8,415.0 L573.5,416.3 M574.2,417.1 L574.7,418.5 M574.7,419.0 L574.7,420.9 M574.7,420.9 L575.3,423.1 M575.5,423.3 L575.5,423.6 M575.5,423.6 L575.5,424.1 M575.5,424.4 L575.8,424.4 M576.0,424.9 L576.7,426.0 M576.7,426.0 L577.0,427.4 M14.8,0.0 L16.3,1.3 L13.0,5.9 L13.0,17.3 M213.5,27.5 L213.5,26.4 M206.2,29.4 L210.2,27.0 M202.8,31.0 L203.5,29.7 M191.0,29.7 L191.5,29.7 M187.8,30.2 L191.0,29.7 M186.3,29.9 L187.8,30.2 M184.5,30.2 L186.3,29.9 M183.2,30.2 L184.5,30.2 M181.7,30.5 L183.2,30.2 M179.7,30.2 L181.7,30.5 M174.7,31.3 L179.7,30.2 M173.8,31.0 L174.7,31.3 M169.5,31.5 L173.8,31.0 M167.5,31.3 L169.5,31.5 M160.8,33.7 L167.5,31.3 M159.8,33.4 L160.8,33.7 M143.8,43.4 L144.8,40.7 L159.8,33.4 M140.7,41.5 L143.8,43.4 M126.2,93.0 L140.7,75.5 L138.3,72.8 L140.5,69.3 L138.0,62.6 L133.5,55.3 L129.3,53.1 L140.7,41.5 M125.3,92.8 L126.2,93.0 M123.5,107.9 L127.5,103.8 L128.0,98.1 L124.2,95.2 L125.3,92.8 M99.2,106.5 L113.0,109.5 M101.7,115.4 L96.0,109.5 L99.2,106.5 M122.3,107.6 L123.5,107.9 M119.8,109.2 L122.3,107.6 M116.5,109.2 L119.8,109.2 M113.0,109.5 L116.5,109.2 M102.7,129.7 L107.3,126.2 L102.7,115.1 M102.7,115.1 L101.7,115.4 M101.5,129.4 L102.7,129.7 M99.7,131.3 L101.5,129.4 M99.2,131.3 L99.7,131.3 M96.0,132.4 L99.2,131.3 M94.2,131.9 L96.0,132.4 M91.8,132.7 L94.2,131.9 M91.0,132.7 L91.8,132.7 M90.2,132.7 L91.0,132.7 M89.8,132.7 L90.2,132.7 M74.5,171.5 L82.5,163.4 L80.8,150.5 L85.8,143.7 L86.7,135.1 L89.8,132.7 M54.0,166.4 L57.0,168.3 M47.7,171.8 L54.0,166.4 M63.3,166.6 L70.0,172.6 M61.5,168.3 L63.3,166.6 M58.0,168.0 L62.5,169.1 M57.0,168.3 L58.0,168.0 M62.5,169.1 L63.0,168.3 M63.0,168.3 L61.5,168.3 M73.5,171.5 L74.5,171.5 M70.0,172.6 L73.5,171.5 M47.0,171.5 L47.7,171.8 M41.8,174.7 L47.0,171.5 M40.0,174.5 L41.8,174.7 M41.3,178.0 L40.0,174.5 M43.8,179.8 L43.3,178.0 M43.3,178.0 L41.3,178.0 M42.7,179.8 L43.8,179.8 M33.7,183.1 L42.7,179.8 M25.0,180.1 L27.0,182.5 M0.0,221.4 L8.5,216.8 L5.8,214.6 L9.3,190.9 L25.0,180.1 M28.5,182.3 L30.8,183.1 M27.0,182.5 L28.5,182.3 M32.0,183.1 L33.7,183.1 M30.8,183.1 L32.0,183.1 M232.5,152.9 L233.2,153.4 M233.7,154.2 L232.8,156.4 M232.8,156.4 L232.5,157.7 M232.0,157.7 L231.5,157.7 M231.5,157.7 L229.3,159.4 M227.7,159.6 L226.0,159.1 M226.0,159.1 L225.5,159.9 M229.3,159.4 L228.5,159.4 M228.5,159.4 L227.7,159.6 M225.5,159.9 L225.0,159.9 M225.0,159.9 L224.5,160.4 M221.2,161.2 L220.7,161.0 M220.7,161.0 L220.0,162.9 M218.8,163.4 L218.5,163.4 M218.3,163.4 L217.5,163.1 M217.5,163.1 L217.2,163.7 M216.3,164.7 L216.0,164.7 M216.0,164.7 L215.7,165.0 M214.8,165.6 L213.0,168.8 M212.2,169.3 L213.7,172.0 M213.7,172.0 L214.5,174.7 M215.0,175.3 L214.0,178.8 M213.7,179.6 L213.5,179.8 M213.3,180.7 L213.3,181.2 M213.3,182.0 L213.3,182.3 M213.0,182.8 L212.8,184.7 M213.3,185.2 L213.7,185.8 M215.0,185.5 L214.8,187.4 M211.5,190.1 L211.3,190.1 M211.0,190.4 L210.8,190.4 M210.5,190.6 L210.2,191.2 M209.3,191.4 L208.5,191.4 M208.5,191.4 L201.2,201.4 M200.5,202.0 L200.3,202.0 M198.8,203.8 L198.0,204.4 M198.0,204.4 L197.5,204.4 M197.5,204.4 L197.7,205.2 M197.7,205.2 L197.2,204.9 M197.2,204.9 L198.5,210.6 L194.0,214.1 M191.3,214.9 L186.7,216.2 M185.0,217.1 L176.2,236.5 L169.5,243.5 M167.2,244.8 L156.5,252.1 L146.5,271.0 M145.5,271.3 L140.0,272.9 M112.2,268.8 L111.5,268.6 M111.5,268.6 L102.3,275.3 L100.5,280.4 L87.8,295.2 L87.5,303.6 L95.5,307.9 M134.0,273.1 L121.8,277.5 M101.5,307.7 L104.0,309.3 L101.5,324.1 L109.0,332.5 M95.5,307.9 L96.8,307.9 M99.5,307.7 L101.5,307.7 M114.8,331.4 L116.3,338.9 L126.5,359.2 L123.8,361.8 L125.0,365.4 M126.7,365.6 L125.0,367.8 M109.0,332.5 L109.5,332.5 M110.5,332.5 L112.5,332.2 M114.0,331.6 L114.8,331.4 M119.0,371.3 L114.5,370.2 M114.0,366.2 L113.0,366.2 M113.0,366.2 L102.7,369.4 L100.0,372.9 M124.2,367.8 L123.5,367.5 M123.5,367.5 L119.0,371.3 M70.3,369.1 L68.8,368.6 M68.8,368.6 L68.0,378.3 M74.5,370.5 L74.2,370.5 M73.3,369.4 L72.5,368.9 M72.5,368.9 L71.2,370.7 M79.3,370.7 L76.7,369.7 M76.7,369.7 L74.5,370.5 M88.5,369.9 L86.3,369.9 M86.0,369.9 L82.0,369.9 M82.0,369.9 L79.3,370.7 M58.7,378.6 L58.5,378.3 M58.5,378.3 L58.2,379.4 M58.2,379.4 L57.8,379.6 M59.3,378.8 L59.0,379.1 M57.0,379.6 L56.7,379.1 M56.7,379.1 L56.3,380.5 M56.3,380.5 L56.0,380.5 M56.0,380.5 L54.5,381.8 M324.0,125.4 L325.0,125.9 M325.0,125.9 L325.5,126.2 M325.8,126.2 L328.2,127.0 M323.5,152.3 L321.0,150.7 M320.7,150.5 L320.5,150.2 M320.3,150.2 L317.7,144.5 M317.7,144.5 L310.2,146.7 M330.5,148.0 L329.5,148.3 M327.0,151.5 L326.7,151.8 M326.7,151.8 L325.8,151.5 M325.8,151.5 L324.5,152.1 M323.8,152.3 L323.5,152.3 M320.7,180.9 L321.0,180.9 M335.8,188.2 L336.0,188.2 M340.0,190.4 L341.8,189.6 M343.0,189.6 L343.3,189.3 M328.2,127.0 L336.5,128.1 L333.5,134.5 M333.5,134.8 L333.2,134.8 M333.5,135.1 L340.5,142.1 L335.5,147.5 M332.3,147.2 L330.5,148.0 M324.7,179.3 L325.3,178.5 M326.2,177.1 L327.5,176.6 M327.8,176.6 L328.2,176.9 M328.2,176.9 L330.2,179.3 M330.8,179.6 L331.2,182.0 M331.5,182.3 L332.0,182.3 M332.8,184.7 L333.5,185.2 M333.5,185.2 L333.7,185.5 M353.5,194.4 L353.8,194.4 M355.2,197.1 L355.0,197.4 M352.8,194.7 L353.2,194.4 M353.2,194.4 L353.5,194.4 M214.2,26.2 L213.5,26.4 M223.3,27.8 L222.5,28.6 M238.5,33.4 L237.8,34.0 M293.5,67.7 L292.0,68.5 M580.5,274.8 L578.0,280.1 M595.0,263.2 L580.5,274.8 M608.2,262.6 L605.8,259.9 M605.8,259.9 L603.8,261.0 M603.8,261.0 L601.7,260.2 M601.7,260.2 L598.8,261.3 M598.8,261.3 L598.0,261.0 M598.0,261.0 L597.0,261.5 M597.0,261.5 L596.8,261.5 M596.8,261.5 L595.0,263.2 M610.5,262.1 L609.8,261.5 M609.8,261.5 L608.2,262.6 M612.0,267.7 L614.8,263.4 L611.5,262.1 M611.5,262.1 L610.5,262.1 M217.0,139.4 L216.3,142.9 M216.3,142.9 L216.5,144.5 M216.3,144.5 L218.0,149.4 M213.0,141.6 L214.5,141.6 M214.8,141.3 L215.0,141.3 M207.8,139.9 L209.3,141.3 M211.0,140.5 L212.8,141.6 M209.3,141.3 L209.8,141.0 M210.8,140.5 L211.0,140.5 M221.0,149.1 L222.7,149.6 M218.0,149.4 L221.0,149.1 M225.5,149.1 L228.2,150.7 M228.2,150.7 L232.5,152.9 M222.7,149.6 L224.2,149.4 M574.5,283.4 L575.0,287.7 L572.7,287.7 M577.8,279.9 L578.0,280.1 M574.5,283.4 L574.5,283.1 M574.5,283.1 L577.8,279.9 M553.0,273.4 L549.2,293.9 L554.2,303.6 L550.0,313.6 M546.5,311.2 L545.8,311.7 M544.5,311.4 L543.8,312.2 M542.0,312.2 L540.5,313.0 M540.2,313.0 L539.8,313.3 M536.0,312.0 L533.2,313.9 M530.5,312.8 L530.5,312.5 M526.0,307.9 L523.3,309.5 M523.3,309.5 L520.8,311.7 M518.8,311.4 L518.3,312.0 M506.0,307.4 L505.2,307.7 M498.8,306.3 L496.2,308.2 M490.0,300.6 L489.8,300.6 M489.2,300.9 L488.5,300.9 M488.2,301.2 L486.0,302.3 M485.2,302.3 L484.0,303.1 M483.5,303.3 L483.2,303.6 M470.3,296.3 L469.8,296.3 M452.5,282.6 L450.0,284.7 M449.7,284.7 L449.5,284.7 M449.0,284.7 L448.5,284.5 M448.3,284.5 L446.5,284.7 M446.0,284.7 L446.0,285.0 M446.2,285.5 L446.5,285.8 M446.8,286.1 L446.5,287.2 M434.8,283.9 L433.0,287.4 M433.0,287.4 L432.5,287.7 M418.8,283.1 L418.5,282.8 M398.8,272.1 L397.2,273.4 M384.3,265.0 L383.5,265.9 M378.8,259.7 L377.3,259.4 M374.5,258.0 L374.2,257.8 M371.5,256.2 L371.0,256.2 M363.0,251.3 L362.2,254.0 M352.5,243.2 L352.5,242.9 M354.3,239.4 L355.2,239.4 M356.2,237.0 L356.5,237.0 M372.3,210.3 L373.3,210.9 M374.0,210.6 L374.2,210.6 M207.8,139.7 L207.8,139.9 M372.7,257.0 L373.0,257.2 M505.0,307.4 L505.0,307.7 M667.2,428.7 L667.2,429.0 M620.0,345.9 L620.3,345.9 M595.0,321.4 L594.8,321.4 M590.7,318.7 L591.0,318.7 M590.2,320.9 L590.5,320.9 M589.5,322.8 L589.5,323.0 M577.5,315.5 L577.8,315.5 M574.7,314.9 L574.7,315.2 M575.5,315.7 L575.5,315.5 M567.0,315.7 L567.2,315.7 M576.0,441.4 L575.8,441.4 M567.5,431.4 L566.5,430.9 M565.2,433.3 L564.8,432.8 M555.5,441.4 L555.8,441.4 M555.8,440.6 L555.8,440.3 M555.0,440.0 L555.0,439.8 M555.2,439.2 L555.2,439.0 M524.7,466.5 L525.3,466.5 M519.2,476.7 L519.5,476.4 M519.8,476.2 L520.0,475.9 M513.8,480.2 L513.5,480.2 M490.5,492.9 L491.0,492.6 M491.3,492.4 L491.5,492.4 M488.5,494.0 L488.7,494.0 M477.0,502.1 L477.0,502.3 M476.7,502.3 L476.5,502.3 M458.7,523.6 L459.0,523.6 M458.5,524.2 L458.5,523.9 M458.2,524.7 L458.5,524.7 M409.0,570.5 L409.0,571.1 M407.0,578.1 L407.3,578.1 M388.7,583.8 L388.5,583.8 M375.3,599.7 L375.0,599.7 M369.8,598.0 L369.8,597.8 M353.0,627.4 L353.0,627.2 M352.8,640.4 L352.5,640.4 M353.5,645.5 L353.5,645.2 M357.5,671.7 L357.5,671.4 M356.2,679.2 L356.2,679.5 M350.0,694.3 L349.7,694.3 M345.7,703.5 L345.7,703.7 M345.5,718.3 L345.3,718.3 M346.8,746.1 L346.8,745.8 M347.0,746.9 L347.0,746.3 M337.2,745.8 L336.8,745.8 M265.0,783.3 L265.0,783.0 M262.0,778.7 L262.0,778.4 M262.0,778.2 L262.0,777.4 M256.5,754.2 L256.7,754.2 M256.0,755.2 L256.0,755.8 M254.5,752.0 L254.5,751.7 M251.2,740.1 L251.2,740.4 M248.0,733.1 L247.7,733.1 M245.7,724.8 L246.0,724.5 M246.2,724.2 L246.5,724.2 M245.3,723.7 L245.5,723.7 M243.3,718.6 L243.5,718.6 M224.7,688.4 L224.7,688.1 M220.7,678.1 L220.7,677.9 M220.5,677.3 L220.5,676.8 M220.3,676.5 L220.3,676.8 M220.5,677.6 L220.5,677.9 M217.5,664.9 L217.5,664.6 M217.2,662.5 L217.2,662.2 M217.2,662.5 L217.5,662.5 M217.7,657.1 L217.7,656.8 M216.8,656.8 L216.5,656.8 M209.8,636.1 L209.8,635.8 M209.5,632.6 L209.5,632.8 M208.0,630.7 L207.8,630.9 M204.0,624.5 L204.3,624.7 M192.2,600.7 L192.5,600.7 M186.5,590.0 L186.5,590.8 M185.2,585.9 L185.5,585.6 M185.2,582.1 L185.5,582.1 M184.3,582.4 L184.3,582.7 M184.0,581.3 L184.3,581.3 M184.5,579.4 L184.8,579.4 M185.2,579.4 L185.5,579.4 M184.0,578.4 L184.5,578.4 M184.8,577.0 L184.5,577.0 M183.5,576.2 L183.5,576.5 M182.8,567.0 L182.8,567.3 M182.3,566.2 L182.3,566.0 M182.3,565.7 L182.3,566.0 M182.3,564.9 L182.0,565.2 M177.3,543.6 L177.5,543.6 M176.7,539.5 L177.0,539.5 M176.0,539.5 L175.8,539.5 M176.0,531.2 L176.2,531.2 M176.5,531.2 L176.7,531.2 M173.3,524.7 L173.5,524.7 M174.7,518.8 L174.7,519.0 M170.3,514.7 L170.5,514.7 M170.7,510.1 L170.7,509.9 M169.5,506.6 L169.5,506.9 M172.2,468.4 L172.5,468.4 M171.2,463.8 L171.2,463.5 M168.0,454.6 L168.3,454.6 M168.5,446.2 L168.8,446.2 M155.8,431.1 L155.5,431.1 M156.0,433.0 L156.0,433.3 M156.0,433.6 L156.0,433.3 M155.0,433.0 L154.5,432.8 M144.2,456.8 L144.0,456.8 M140.7,458.9 L140.7,459.2 M138.7,459.7 L138.5,459.7 M139.0,459.5 L139.0,459.7 M127.0,464.8 L127.3,464.8 M94.5,446.0 L94.8,446.2 M84.5,436.0 L84.5,436.3 M79.3,422.0 L79.3,422.2 M105.0,415.5 L105.0,415.8 M93.0,411.2 L92.7,411.2 M83.7,409.3 L84.0,409.0 M80.8,408.8 L80.8,408.5 M66.0,399.9 L66.3,399.9 M65.2,398.0 L65.0,398.0 M64.2,394.5 L64.5,394.5 M61.5,390.7 L61.7,390.7 M688.0,807.6 L688.0,807.0 M176.7,800.8 L176.7,800.5 M663.7,731.2 L663.7,731.5 M664.8,733.7 L664.5,733.7 M668.0,719.7 L668.0,719.9 M675.3,702.4 L675.3,702.1 M675.3,702.1 L675.3,701.9 M675.0,702.4 L675.3,702.1 M668.5,699.4 L668.8,699.7 M668.5,699.7 L668.3,699.7 M669.2,695.7 L669.5,695.9 M672.0,695.4 L672.0,695.1 M673.5,693.5 L673.5,693.2 M671.5,695.7 L671.5,695.9 M671.5,696.2 L671.5,695.9 M669.5,692.7 L669.8,692.7 M670.3,692.7 L670.5,692.7 M668.3,679.5 L668.3,680.0 M668.8,693.0 L668.5,693.0 M669.8,683.3 L669.8,683.5 M671.5,677.1 L672.0,677.1 M674.5,675.7 L674.2,675.7 M676.7,663.3 L676.7,663.6 M673.5,671.7 L673.8,671.7 M672.7,672.2 L672.7,671.9 M670.3,671.7 L670.3,671.9 M671.2,667.3 L671.2,667.1 M563.3,440.9 L563.5,441.1 M563.0,439.0 L564.0,438.7 M565.5,436.0 L565.2,436.5 M61.5,390.7 L63.3,385.6 L70.0,380.7 L62.0,384.5 L60.8,382.3 L59.8,388.3 L57.0,389.4 L54.3,387.7 L58.5,384.2 L56.0,386.4 L55.2,381.8 L58.7,378.3 L68.8,378.3 L69.0,369.4 L70.7,368.9 L71.5,371.8 L73.3,369.4 L74.7,371.6 L89.8,369.7 L93.3,372.9 L100.8,372.9 L102.7,369.4 L114.0,366.2 L116.0,371.6 L121.0,371.3 L128.0,366.7 L125.0,365.6 L124.7,361.3 L127.5,358.9 L122.3,346.5 L116.5,339.7 L116.5,331.6 L106.7,331.4 L102.5,325.2 L104.3,308.7 L87.8,303.6 L89.8,291.7 L100.8,281.5 L103.2,274.8 L109.3,269.4 L114.8,269.4 L120.3,277.5 L147.5,270.7 L158.7,250.0 L173.8,241.9 L182.0,227.3 L184.8,217.3 L199.2,210.3 L197.0,206.0 L198.3,202.5 L201.7,201.7 L214.2,187.1 L217.5,186.9 L212.8,185.2 L213.7,178.8 L216.3,177.4 L212.2,169.3 L215.2,164.7 L222.3,160.2 L231.0,159.4 L234.3,155.8 L227.5,148.8 L217.0,148.6 L217.7,139.1 L216.0,141.6 L209.3,141.0 L198.3,134.0 L190.7,132.4 L189.8,110.3 L185.0,97.6 L186.3,92.5 L191.5,92.8 L193.8,86.8 L201.2,83.9 L203.2,77.7 L193.8,75.0 L192.2,71.5 L194.8,66.9 L185.2,66.6 L183.2,63.1 L177.8,60.9 L179.5,57.7 L166.8,58.8 L162.8,56.6 L164.2,46.9 L174.0,41.3 L176.5,35.1 L195.7,34.8 L196.5,32.9 L191.3,29.1 L201.0,31.5 L210.5,26.7 L214.0,27.8 L217.2,24.3 L221.0,25.1 L222.5,28.6 L229.0,26.2 L235.5,28.0 L236.5,34.2 L243.5,33.7 L250.3,41.8 L268.0,49.6 L271.0,57.7 L283.7,61.5 L288.5,67.9 L297.7,68.5 L298.5,65.8 L304.0,66.1 L306.0,61.2 L313.5,60.4 L321.2,54.7 L325.8,56.4 L333.5,54.2 L337.2,58.0 L339.2,56.6 L342.5,63.6 L350.0,64.7 L351.2,69.6 L355.2,65.3 L359.3,66.6 L360.5,69.0 L357.0,71.7 L355.2,83.9 L352.0,88.7 L344.8,90.9 L344.2,95.2 L337.8,95.7 L340.2,101.4 L335.0,107.9 L324.7,106.8 L322.3,108.7 L327.3,117.6 L322.3,118.9 L324.0,125.6 L328.8,130.0 L335.2,129.7 L333.2,134.8 L338.7,143.4 L335.2,147.8 L332.0,146.7 L324.5,152.6 L320.3,150.2 L318.5,142.9 L309.8,147.2 L312.2,154.2 L319.5,162.0 L317.5,166.9 L321.2,172.3 L318.0,175.0 L319.5,180.4 L322.5,180.9 L327.8,176.6 L335.8,188.2 L340.0,190.4 L346.5,189.3 L356.0,195.2 L355.2,200.1 L375.8,209.0 L359.0,222.7 L360.2,226.5 L356.0,230.8 L357.5,237.0 L351.5,244.8 L359.0,252.6 L363.0,254.8 L364.2,251.0 L372.7,257.0 M373.0,257.2 L380.2,259.9 L383.0,266.1 L385.8,265.0 L397.5,273.7 L400.8,271.5 L411.3,278.3 L417.7,277.2 L418.5,283.1 L429.5,284.2 L433.5,287.7 L434.8,283.7 L446.8,287.2 L446.2,284.5 L453.8,282.6 L457.0,286.1 L465.5,287.4 L467.2,290.7 L466.0,295.2 L474.2,297.7 L475.5,300.6 L479.7,300.1 L480.2,303.1 L490.7,300.1 L496.2,308.2 L500.8,305.5 L505.0,307.4 M505.0,307.7 L508.5,306.8 L518.5,312.2 L526.7,307.7 L527.3,311.4 L533.5,314.1 L547.3,310.3 L550.8,313.9 L554.8,303.3 L553.5,297.1 L549.7,293.6 L551.0,283.4 L555.0,275.3 L553.2,271.0 L560.2,270.2 L565.7,266.4 L571.0,269.4 L572.2,273.4 L569.0,281.2 L573.0,288.0 L568.8,292.8 L571.8,293.6 L572.0,298.2 L575.5,298.2 L578.2,301.7 L584.5,300.4 L596.5,304.7 L609.0,299.3 L617.2,302.8 L643.0,301.7 L647.3,298.8 L652.0,300.6 L653.0,297.1 L650.5,293.6 L653.0,288.8 L650.5,283.7 L641.3,283.7 L639.0,279.6 L641.0,276.1 L648.3,277.2 L656.0,272.6 L661.5,275.3 L668.3,270.2 L667.0,265.6 L673.0,264.2 L681.2,254.8 L706.5,244.6 L709.3,241.9 L707.3,238.6 L715.7,234.6 L720.3,238.4 L731.7,240.8 L735.8,237.5 L737.8,239.2 L740.2,236.2 L742.7,237.3 L745.2,233.2 L753.5,233.2 L757.8,237.8 L754.5,241.3 L758.0,239.4 L766.3,251.0 L763.5,251.0 L760.2,256.2 L762.5,258.0 L762.2,255.1 L768.0,253.2 L773.3,260.2 L777.5,259.7 L784.0,264.0 L784.5,272.6 L781.0,272.3 L772.2,279.9 L772.5,284.5 L779.3,292.8 L776.5,294.2 L771.8,291.7 L768.0,286.6 L755.8,289.0 L735.5,305.0 L728.8,306.8 L726.5,311.4 L729.8,321.7 L725.3,326.3 L726.2,330.0 L722.5,335.2 L715.7,339.7 L714.5,344.9 L718.5,347.0 L718.5,350.0 L708.0,368.6 L704.0,381.5 L693.8,377.2 L687.5,379.1 L683.2,375.1 L686.0,385.8 L684.8,400.7 L682.0,404.5 L678.2,402.8 L677.3,409.6 L680.0,424.4 L679.0,426.6 L676.0,426.0 L675.3,431.7 L673.8,430.6 L672.5,433.0 L671.5,429.5 L667.2,428.7 M667.2,428.7 L665.2,432.2 L657.0,385.0 L651.0,386.9 L648.8,384.8 L649.2,391.5 L644.0,396.1 L646.0,402.0 L640.5,406.1 L635.2,396.6 L635.5,402.3 L633.7,401.8 L628.8,385.8 L630.8,379.4 L634.5,378.0 L634.3,374.5 L639.5,375.6 L641.5,371.3 L644.0,373.7 L643.5,370.7 L647.7,373.7 L648.0,368.3 L653.0,367.2 L655.8,363.2 L657.5,357.5 L656.0,353.2 L660.5,354.6 L662.2,351.9 L651.7,345.4 L641.0,347.3 L631.7,344.9 L620.0,345.9 M620.0,345.9 L611.0,346.7 L596.0,342.7 L597.2,324.9 L595.0,321.4 M595.0,321.4 L592.2,317.4 L590.7,318.7 M590.7,318.7 L590.2,320.9 M590.5,320.9 L589.5,322.8 M589.5,323.0 L581.2,321.9 L577.5,315.5 M577.5,315.5 L574.0,311.2 L572.7,313.6 L574.7,314.9 M574.7,315.2 L575.5,315.7 M575.5,315.7 L567.0,315.7 M567.0,315.7 L568.8,314.4 L560.0,306.6 L558.2,310.6 L562.0,311.2 L563.0,314.1 L554.5,319.5 L552.5,328.1 L556.7,328.7 L563.5,336.8 L570.2,336.5 L571.0,340.8 L575.3,343.5 L573.5,345.9 L561.0,345.1 L558.5,354.0 L553.5,352.1 L554.2,354.3 L550.3,359.4 L558.2,367.2 L568.5,369.9 L569.2,378.0 L564.5,381.3 L564.0,387.2 L570.0,391.0 L568.3,397.7 L575.0,398.8 L571.2,405.5 L574.2,408.5 L572.7,411.2 L574.7,423.6 L577.5,427.1 L576.5,433.3 L574.7,432.8 L577.5,440.6 L576.0,441.4 M576.0,441.4 L572.2,440.9 L571.5,437.3 L571.2,441.7 L567.7,439.8 L568.8,429.3 L567.5,431.4 M566.5,430.9 L566.0,429.3 L565.2,433.3 M565.2,433.3 L564.0,436.3 L563.0,432.8 L561.5,434.1 L561.2,441.9 L559.3,438.7 L556.7,438.7 L557.5,443.3 L555.5,441.4 M555.8,441.4 L555.8,440.6 M555.8,440.3 L555.0,440.0 M555.0,439.8 L555.2,439.2 M555.2,439.0 L555.2,427.4 L550.5,425.5 L554.8,428.7 L545.2,439.5 L526.0,445.4 L520.5,453.8 L524.2,462.7 L521.8,464.6 L525.0,464.6 L523.3,466.2 L524.7,466.5 M525.3,466.5 L524.7,466.5 M525.3,466.5 L518.3,471.1 L517.7,474.6 L519.8,475.4 L517.0,477.5 L519.2,476.7 M519.5,476.4 L519.8,476.2 M519.8,476.2 L519.5,476.4 M519.2,476.7 L513.8,480.2 M513.8,480.2 L508.0,485.6 L509.3,486.7 L490.5,492.9 M491.0,492.6 L491.3,492.4 M491.3,492.4 L491.0,492.6 M490.5,492.9 L488.5,494.0 M488.5,494.0 L477.0,502.1 M477.0,502.3 L476.7,502.3 M476.7,502.3 L477.0,502.1 M477.0,502.3 L468.5,509.3 L458.7,523.6 M458.7,523.6 L458.5,524.2 M458.5,524.2 L458.2,524.7 M458.2,524.7 L452.3,531.7 L439.0,538.7 L430.5,550.3 L411.5,561.1 L406.2,567.8 L409.0,570.5 M409.0,570.5 L408.2,566.5 L409.0,572.2 L406.7,574.3 L409.3,574.1 L407.8,577.0 L406.5,574.6 L407.0,578.1 M407.3,578.1 L393.3,584.8 L388.7,583.8 M388.7,583.8 L381.5,585.9 L375.3,599.7 M375.3,599.7 L370.7,601.3 L369.8,598.0 M369.8,598.0 L363.0,597.0 L356.5,602.1 L351.5,615.0 L353.0,627.4 M353.0,627.4 L355.0,631.8 L352.8,640.4 M352.5,640.4 L353.5,645.5 M353.5,645.5 L358.7,664.9 L357.5,671.7 M357.5,671.7 L356.2,679.2 M356.2,679.2 L354.0,688.6 L350.0,694.3 M350.0,694.3 L345.7,703.5 M345.7,703.5 L344.0,709.4 L345.5,718.3 M345.5,718.3 L346.8,746.1 M346.8,746.1 L347.0,746.9 M347.0,746.9 L337.2,745.8 M337.2,745.8 L332.3,748.0 L331.7,753.9 L322.5,768.7 L324.0,772.8 L329.7,774.4 L309.3,779.5 L304.3,784.9 L301.7,798.9 L288.7,807.0 L283.0,805.7 L275.3,799.5 L263.7,784.9 L265.0,783.3 M265.0,783.3 L266.8,782.7 L263.5,783.8 L262.0,778.7 M262.0,778.7 L262.0,778.2 M262.0,778.2 L258.0,769.5 L256.5,754.2 M256.5,754.2 L256.0,755.2 M256.0,755.2 L254.5,752.0 M254.5,752.0 L251.2,740.1 M251.2,740.1 L248.0,733.1 M248.0,733.1 L245.7,724.8 M246.0,724.5 L246.2,724.2 M246.2,724.2 L246.0,724.5 M245.7,724.8 L245.3,723.7 M245.3,723.7 L243.3,718.6 M243.3,718.6 L237.2,707.0 L230.0,701.0 L224.7,688.4 M224.7,688.4 L220.7,678.1 M220.7,677.9 L220.5,677.3 M220.5,676.8 L220.3,676.5 M220.3,676.8 L220.5,676.8 M220.5,677.3 L220.5,677.6 M220.5,677.9 L220.7,677.9 M220.7,678.1 L220.5,677.9 M220.5,677.6 L220.3,676.8 M220.3,676.5 L217.5,664.9 M217.5,664.6 L217.5,664.9 M217.5,664.6 L217.2,662.5 M217.2,662.5 L217.7,657.1 M217.7,657.1 L216.8,656.8 M216.5,656.8 L210.8,639.8 L212.8,640.4 L209.8,636.1 M209.8,636.1 L209.5,632.6 M209.5,632.6 L207.8,633.1 L208.0,630.7 M208.0,630.7 L202.3,625.6 L204.0,624.5 M204.0,624.5 L197.7,618.0 L197.5,611.3 L194.5,609.1 L197.2,608.6 L194.8,607.8 L193.3,604.2 L194.8,602.6 L193.3,603.7 L192.2,600.7 M192.2,600.7 L186.5,590.0 M186.5,590.0 L185.2,585.9 M185.2,585.6 L185.2,582.1 M185.2,582.1 L184.3,582.4 M184.3,582.4 L184.0,581.3 M184.0,581.3 L182.8,578.6 L184.5,579.4 M184.8,579.4 L185.2,579.4 M185.2,579.4 L184.8,579.4 M184.5,579.4 L184.0,578.4 M184.0,578.4 L183.0,577.0 L184.8,577.0 M184.8,577.0 L183.5,576.2 M183.5,576.2 L182.8,567.0 M182.8,567.0 L182.3,566.2 M182.3,566.0 L182.3,565.7 M182.3,565.7 L182.3,564.9 M182.3,564.9 L179.7,558.1 L182.5,558.4 L179.3,555.4 L178.5,550.9 L180.5,550.3 L178.5,550.1 L177.3,543.6 M177.3,543.6 L176.7,539.5 M176.7,539.5 L176.0,539.5 M176.0,539.5 L173.3,533.3 L174.2,531.7 L177.5,535.5 L176.0,531.2 M176.2,531.2 L176.5,531.2 M176.5,531.2 L176.2,531.2 M176.0,531.2 L172.7,529.6 L173.3,524.7 M173.5,524.7 L175.0,526.6 L173.5,524.7 M173.3,524.7 L171.5,518.0 L174.7,518.8 M174.7,518.8 L174.7,515.8 L172.7,515.5 L176.7,511.8 L175.0,512.3 L174.7,507.2 L170.3,514.7 M170.3,514.7 L170.7,510.1 M170.7,509.9 L171.0,505.6 L169.5,506.6 M169.5,506.6 L169.8,503.9 L172.7,504.5 L168.5,499.9 L172.0,498.0 L168.0,497.7 L166.5,489.4 L172.2,468.4 M172.2,468.4 L171.2,465.4 L173.3,464.8 L171.2,463.8 M171.2,463.8 L169.5,460.5 L171.5,459.7 L168.3,458.4 L170.7,456.0 L168.0,454.6 M168.3,454.6 L169.8,453.5 L168.3,454.6 M168.0,454.6 L165.5,455.7 L166.5,452.2 L168.3,453.0 L165.0,450.0 L168.5,446.2 M168.5,446.2 L166.0,446.2 L173.3,440.0 L163.5,440.6 L165.5,433.8 L168.8,432.0 L163.0,434.1 L162.8,430.6 L164.8,425.8 L169.0,426.8 L172.7,424.1 L163.7,423.3 L160.8,426.0 L159.3,422.2 L155.8,431.1 M155.8,431.1 L156.0,433.0 M156.0,433.3 L156.0,433.6 M156.0,433.0 L155.0,433.0 M155.0,433.0 L156.0,433.3 M156.0,433.6 L156.2,436.5 L154.3,436.5 L157.8,441.4 L152.8,453.0 L144.2,456.8 M144.2,456.8 L140.7,458.9 M140.7,458.9 L138.7,459.7 M138.7,459.7 L139.0,459.5 M139.0,459.5 L127.0,464.8 M127.0,464.8 L120.5,466.7 L111.0,462.4 L94.5,446.0 M94.5,446.0 L84.5,436.0 M84.5,436.0 L73.8,424.7 L76.7,418.5 L76.0,420.9 L79.7,420.1 L79.3,422.0 M79.3,422.0 L82.3,424.1 L87.0,422.5 L87.8,419.8 L91.5,422.5 L93.0,418.7 L95.3,420.6 L99.0,416.9 L105.0,415.5 M105.0,415.5 L110.8,405.0 L107.3,406.1 L105.5,402.8 L105.5,405.8 L97.0,406.9 L93.0,411.2 M92.7,411.2 L93.0,411.2 M92.7,411.2 L83.7,409.3 M83.7,409.3 L80.8,408.8 M80.8,408.8 L66.0,399.9 M66.3,399.9 L68.0,400.7 L66.3,399.9 M66.0,399.9 L65.2,398.0 M65.2,398.0 L66.8,396.4 L64.2,394.5 M64.2,394.5 L61.5,390.7 M694.8,839.1 L691.5,832.4 L696.5,829.4 L699.0,836.9 L696.0,842.6 L694.8,839.1 M693.0,824.5 L694.5,825.9 L691.5,829.1 L693.0,824.5 M683.7,810.8 L684.8,808.4 L686.8,812.1 L683.7,810.8 M688.0,808.9 L689.8,810.8 L688.0,808.9 M690.0,806.2 L690.2,807.8 L690.0,806.2 M688.0,808.9 L688.0,807.6 M688.0,807.6 L686.5,804.0 L688.5,802.4 L688.0,808.9 M175.5,801.6 L176.7,800.8 M176.7,800.8 L175.5,801.6 M678.2,799.5 L679.7,803.8 L677.3,801.6 L678.2,799.5 M690.7,796.5 L690.5,793.5 L690.7,796.5 M669.2,778.7 L669.5,775.2 L669.2,778.7 M663.7,731.2 L664.8,733.7 M664.8,733.7 L663.5,741.2 L659.5,740.7 L659.5,733.7 L663.7,731.2 M666.5,714.8 L667.5,718.3 L665.0,718.8 L666.5,714.8 M655.8,712.1 L656.7,714.3 L655.8,712.1 M675.5,705.1 L676.7,706.2 L675.5,705.1 M674.5,700.0 L676.2,704.3 L675.3,702.4 M675.3,702.4 L675.0,702.4 M675.0,702.4 L674.5,700.0 M676.0,697.5 L676.2,700.0 L676.0,697.5 M677.5,696.2 L677.0,698.9 L677.5,696.2 M668.0,696.5 L668.5,699.4 M668.5,699.4 L668.5,699.7 M668.5,699.7 L670.0,705.1 L666.8,710.5 L669.0,709.9 L668.0,715.3 L663.0,705.6 L664.2,702.7 L665.5,705.1 L667.5,694.6 L668.0,696.5 M668.5,695.1 L669.2,695.7 M669.5,695.9 L668.5,695.1 M672.0,695.1 L672.0,695.4 M668.3,694.8 L668.0,693.0 L668.3,694.8 M672.7,693.8 L673.5,693.5 M673.5,693.5 L672.7,693.8 M670.8,693.0 L672.0,695.1 M672.0,695.4 L671.5,695.7 M671.5,695.7 L671.5,696.2 M671.5,696.2 L669.2,699.4 L669.5,695.9 M669.2,695.7 L669.5,692.7 M669.8,692.7 L670.3,692.7 M670.5,692.7 L670.8,693.0 M668.0,678.7 L668.3,679.5 M668.3,680.0 L668.0,681.6 L668.0,678.7 M673.8,678.4 L674.7,687.0 L673.3,690.3 L670.3,688.9 L672.5,691.6 L670.5,692.7 M670.3,692.7 L669.8,692.7 M669.5,692.7 L668.8,693.0 M668.5,693.0 L667.2,684.6 L669.8,683.3 M669.8,683.3 L668.3,680.0 M668.3,679.5 L671.5,677.1 M672.0,677.1 L673.8,678.4 M668.0,678.1 L667.0,680.0 L667.2,674.4 L668.0,678.1 M675.3,674.4 L674.5,675.7 M674.5,675.7 L675.3,674.4 M676.0,661.7 L676.7,663.3 M676.7,663.3 L677.0,665.7 L674.0,664.9 L676.7,667.1 L676.0,672.7 L674.2,673.8 L673.5,671.7 M673.5,671.7 L672.7,672.2 M672.7,672.2 L672.0,677.1 M671.5,677.1 L670.3,671.7 M670.3,671.7 L671.2,667.3 M671.2,667.1 L673.0,659.8 L676.0,658.7 L676.0,661.7 M571.2,442.2 L572.5,443.3 L571.2,442.2 M563.0,442.5 L563.3,440.9 M563.5,441.1 L564.8,442.2 L563.0,442.5 M557.8,439.2 L558.0,441.9 L557.8,439.2 M568.8,442.7 L567.5,439.2 L568.8,442.7 M555.2,440.3 L555.8,440.3 M555.8,440.6 L555.8,441.4 M555.5,441.4 L555.2,439.0 M555.2,439.2 L555.0,439.8 M555.0,440.0 L555.2,440.3 M564.0,438.7 L565.0,441.7 L563.5,441.1 M563.3,440.9 L563.0,439.0 M563.0,439.0 L563.5,436.5 L564.0,438.7 M565.0,435.5 L565.5,436.0 M565.2,436.5 L565.0,435.5 M554.2,437.1 L554.0,441.1 L551.2,441.1 L553.5,434.6 L554.2,437.1 M565.5,436.0 L566.5,433.6 L565.2,436.5 M567.5,431.4 L565.7,432.8 L566.5,430.9 M551.7,433.6 L553.5,430.6 L551.7,433.6 M54.3,384.8 L54.7,383.1 L54.3,384.8"/></svg>
