<svg xmlns="http://www.w3.org/2000/svg"><path id="land" d="M46.2,354.4 L41.9,354.7 L36.2,352.4 L41.7,352.0 L46.2,354.4Z M299.7,351.2 L302.4,352.2 L303.7,355.6 L283.9,355.6 L291.9,351.2 L299.7,351.2Z M130.6,341.1 L136.2,341.1 L132.8,342.4 L127.5,341.5 L130.6,341.1Z M121.0,341.1 L124.4,341.9 L117.2,341.0 L121.0,341.1Z M180.0,337.6 L186.2,338.9 L172.6,337.5 L180.0,337.6Z M247.9,335.5 L247.2,338.2 L242.0,338.9 L235.1,338.6 L233.3,337.0 L239.8,336.0 L240.6,332.2 L243.9,330.8 L247.9,335.5Z M269.8,320.3 L262.2,321.8 L260.8,323.3 L262.0,324.9 L254.1,328.8 L262.6,334.9 L264.8,341.6 L243.1,348.1 L228.4,348.2 L236.3,350.9 L226.8,352.0 L226.6,353.7 L230.6,355.6 L335.0,355.6 L334.0,353.9 L320.8,354.4 L320.5,351.9 L361.1,344.7 L365.1,343.3 L364.2,341.0 L377.1,336.2 L399.5,337.0 L417.2,333.1 L424.0,335.2 L429.8,333.3 L460.2,334.4 L471.1,332.6 L475.3,330.0 L485.9,332.8 L521.2,324.0 L536.5,328.8 L542.3,327.6 L553.1,328.7 L554.8,331.6 L550.7,334.0 L553.5,334.8 L551.0,337.4 L555.3,338.4 L564.1,333.0 L572.5,332.1 L584.0,327.1 L592.8,327.0 L595.5,324.9 L599.3,327.0 L612.8,327.5 L621.6,327.2 L628.5,323.5 L636.0,326.5 L652.4,324.2 L666.3,327.3 L673.8,325.5 L699.5,324.9 L700.2,322.9 L705.5,326.6 L723.3,326.5 L730.8,329.8 L742.8,330.1 L759.0,334.6 L780.5,337.1 L776.2,341.5 L769.1,343.1 L763.5,347.2 L766.1,351.5 L771.1,352.8 L759.5,353.7 L757.4,355.6 L74.0,355.6 L54.8,353.5 L48.8,351.2 L48.1,348.6 L63.7,349.8 L75.3,347.7 L75.1,345.3 L99.5,342.9 L131.0,343.4 L146.8,341.6 L150.4,343.8 L161.0,344.8 L177.5,344.2 L172.1,342.5 L169.6,339.2 L185.9,341.4 L199.8,340.7 L201.7,339.0 L219.0,341.9 L221.6,340.3 L233.6,341.9 L250.3,338.8 L247.7,332.7 L250.2,329.2 L249.5,327.4 L260.0,321.4 L272.8,319.0 L269.8,320.3Z M249.4,297.4 L255.4,299.3 L246.2,301.1 L234.1,295.2 L242.0,297.9 L245.9,294.5 L249.4,297.4Z M269.9,291.3 L271.0,293.1 L264.0,293.0 L269.9,291.3Z M556.2,288.2 L552.8,288.4 L553.2,285.8 L556.7,286.8 L556.2,288.2Z M723.1,268.4 L729.5,268.6 L728.7,273.8 L724.6,274.6 L721.6,269.2 L723.1,268.4Z M784.5,268.7 L787.2,269.7 L783.8,274.2 L784.6,275.2 L781.0,276.1 L776.3,281.4 L770.4,280.5 L771.2,278.0 L784.5,268.7Z M788.0,258.1 L792.8,262.0 L796.7,261.6 L795.5,264.8 L793.8,264.8 L789.4,270.4 L788.1,269.5 L788.7,266.5 L786.3,265.6 L788.2,260.8 L783.6,254.5 L787.4,256.2 L788.0,258.1Z M771.4,227.0 L767.7,226.0 L764.5,222.5 L771.4,227.0Z M796.4,216.3 L796.8,218.1 L794.2,218.1 L796.4,216.3Z M798.6,215.1 L796.9,214.8 L800.0,213.5 L798.6,215.1Z M773.0,214.4 L771.6,213.1 L773.0,214.4Z M771.4,211.0 L771.7,212.8 L770.3,210.3 L771.4,211.0Z M511.2,207.9 L512.0,212.7 L510.4,212.7 L504.7,233.2 L500.9,234.7 L497.9,233.3 L496.1,226.8 L498.6,222.4 L498.8,213.8 L506.0,210.2 L509.3,204.5 L511.2,207.9Z M719.0,208.4 L723.0,211.1 L725.3,219.9 L730.8,223.1 L732.6,227.4 L735.0,227.6 L740.3,235.7 L741.3,240.2 L739.8,248.1 L733.3,261.0 L725.2,264.5 L722.3,262.0 L719.1,264.0 L712.5,262.3 L710.2,258.1 L706.9,256.9 L707.1,254.2 L704.1,256.1 L706.2,250.9 L702.2,255.3 L698.4,250.3 L691.8,247.8 L680.3,249.4 L674.8,253.1 L666.4,253.3 L662.3,255.7 L655.6,253.8 L657.1,248.0 L651.9,235.8 L652.8,236.8 L652.1,234.7 L653.8,236.2 L652.0,232.0 L653.7,226.1 L653.8,227.8 L659.4,223.8 L668.6,221.5 L673.4,214.2 L675.2,215.7 L674.4,214.7 L679.3,209.4 L682.4,208.5 L688.0,211.0 L690.3,205.6 L694.6,204.7 L692.9,202.8 L694.1,202.5 L700.7,205.0 L703.3,204.1 L704.3,205.2 L701.1,211.1 L711.6,217.1 L713.9,214.2 L716.7,201.5 L719.0,208.4Z M760.3,201.1 L758.5,200.4 L760.3,201.1Z M668.3,200.5 L664.4,199.0 L666.4,198.6 L668.3,200.5Z M757.4,199.7 L754.9,198.3 L757.4,199.7Z M759.3,199.1 L756.8,196.3 L759.3,199.1Z M676.5,200.3 L674.4,200.5 L678.0,197.0 L683.0,196.4 L676.5,200.3Z M662.0,195.8 L664.7,197.1 L659.4,197.8 L662.0,195.8Z M673.1,195.8 L672.8,197.0 L666.5,197.4 L673.1,195.8Z M755.3,196.3 L751.6,194.3 L755.3,196.3Z M750.1,194.1 L747.9,192.4 L750.1,194.1Z M641.4,192.8 L646.1,192.2 L657.1,196.4 L654.6,197.2 L634.2,193.0 L635.7,190.9 L641.4,192.8Z M699.4,191.6 L698.2,193.1 L698.9,189.9 L699.4,191.6Z M746.4,192.9 L743.4,189.2 L746.4,192.9Z M737.7,190.0 L733.9,191.8 L729.6,190.6 L733.6,188.9 L735.1,189.9 L736.8,187.0 L738.5,187.4 L737.7,190.0Z M682.8,185.5 L680.0,184.8 L682.8,185.5Z M689.9,184.6 L690.7,186.4 L684.2,185.3 L684.8,184.1 L689.9,184.6Z M740.3,187.8 L734.8,183.9 L738.3,185.0 L740.3,187.8Z M698.1,180.3 L698.7,183.9 L701.0,185.3 L707.4,181.6 L721.3,186.4 L728.1,191.3 L727.1,194.2 L734.9,201.3 L728.7,200.3 L721.6,194.7 L717.0,198.5 L709.2,195.8 L705.8,196.5 L708.2,194.0 L706.5,189.8 L697.0,185.6 L695.5,186.9 L693.3,184.0 L697.1,182.7 L693.8,182.7 L690.0,179.9 L694.2,178.6 L698.1,180.3Z M678.3,174.6 L674.9,177.2 L667.1,177.2 L668.8,180.9 L674.1,179.2 L670.0,182.0 L673.7,189.6 L671.6,189.5 L672.7,187.7 L670.0,187.9 L668.8,183.6 L667.4,184.3 L667.6,190.1 L665.3,189.7 L665.6,185.5 L663.9,184.0 L666.8,176.5 L668.6,174.9 L678.3,174.6Z M686.0,175.3 L684.7,179.8 L683.1,175.5 L684.3,173.0 L686.0,175.3Z M635.2,190.8 L632.7,190.8 L628.0,187.2 L611.8,165.6 L616.6,166.1 L630.8,177.6 L629.9,179.4 L635.8,184.6 L635.2,190.8Z M662.0,173.7 L664.4,175.8 L661.8,176.0 L658.1,186.7 L644.9,184.3 L642.4,178.8 L643.7,173.3 L647.0,173.7 L647.5,171.8 L651.1,170.9 L659.4,162.4 L664.8,165.8 L660.7,170.6 L662.0,173.7Z M680.8,159.1 L681.2,161.8 L680.4,163.8 L679.6,161.6 L678.6,162.7 L678.7,165.4 L676.0,164.1 L674.7,160.4 L670.9,161.8 L674.4,158.5 L678.8,157.8 L678.7,156.1 L680.8,159.1Z M580.5,164.0 L578.6,164.5 L577.5,162.8 L578.1,156.0 L581.8,161.1 L580.5,164.0Z M264.6,155.3 L262.3,155.4 L264.2,153.6 L264.6,155.3Z M675.5,154.9 L673.3,157.7 L672.0,156.2 L675.7,152.8 L675.5,154.9Z M663.3,157.1 L660.4,159.2 L665.6,152.5 L666.0,154.3 L663.3,157.1Z M670.8,151.4 L673.6,152.0 L671.1,154.6 L670.8,151.4Z M678.9,150.8 L679.5,153.2 L677.8,152.6 L677.3,155.3 L676.2,149.9 L678.9,150.8Z M670.1,148.7 L669.5,150.6 L667.4,147.8 L670.1,148.7Z M669.6,136.7 L671.7,136.7 L672.3,139.8 L670.4,142.4 L670.5,145.9 L675.4,147.2 L675.7,149.9 L673.2,147.7 L668.1,147.0 L668.9,145.5 L666.8,144.5 L666.4,141.4 L667.3,142.2 L668.3,136.6 L669.6,136.7Z M254.2,137.3 L250.6,137.0 L254.2,137.3Z M229.1,138.1 L225.9,137.3 L230.7,138.0 L229.1,138.1Z M238.7,133.6 L244.6,134.1 L248.2,136.4 L243.0,136.8 L241.3,138.7 L234.5,137.0 L239.3,136.3 L236.8,134.1 L238.7,133.6Z M645.2,136.3 L641.5,136.6 L641.4,134.7 L646.2,133.2 L645.2,136.3Z M54.4,135.4 L53.6,132.7 L56.0,134.4 L54.4,135.4Z M53.2,131.9 L51.8,131.3 L53.2,131.9Z M51.6,130.7 L50.4,130.9 L51.6,130.7Z M49.7,130.4 L48.2,129.8 L49.7,130.4Z M222.9,127.2 L235.2,132.7 L227.2,133.6 L228.7,132.4 L225.1,129.8 L218.2,127.5 L211.2,129.1 L217.2,126.2 L222.9,127.2Z M227.7,125.0 L226.2,121.8 L227.7,125.0Z M669.3,127.1 L668.3,129.0 L666.9,125.4 L670.0,121.6 L669.3,127.1Z M227.1,118.7 L224.5,118.2 L227.1,118.7Z M228.9,118.7 L228.5,120.3 L227.1,117.7 L228.9,118.7Z M699.2,101.9 L698.2,104.0 L694.1,104.5 L695.4,102.1 L699.2,101.9Z M476.8,98.5 L473.3,101.0 L471.7,99.8 L476.8,98.5Z M452.7,98.4 L458.4,99.3 L454.9,100.2 L452.7,98.4Z M434.5,92.8 L433.6,96.4 L427.6,94.2 L434.5,92.8Z M420.5,86.2 L421.5,90.7 L419.6,91.3 L418.1,86.8 L420.5,86.2Z M713.3,95.2 L711.7,99.7 L704.9,100.9 L701.8,103.4 L700.2,100.9 L691.1,102.5 L693.3,104.1 L691.8,107.9 L689.3,108.0 L689.9,106.0 L687.6,103.8 L694.7,99.0 L701.5,98.8 L703.8,94.9 L705.3,95.9 L709.8,92.8 L710.8,87.6 L714.2,85.8 L715.3,90.7 L713.3,95.2Z M421.2,84.1 L420.5,85.8 L419.0,83.9 L420.9,82.2 L421.2,84.1Z M719.8,79.6 L722.9,79.2 L723.4,81.6 L718.2,84.4 L714.7,82.9 L713.5,85.4 L711.0,85.4 L710.7,83.2 L714.2,81.4 L715.5,76.6 L719.8,79.6Z M258.5,74.3 L262.2,74.6 L260.3,75.6 L256.9,73.9 L258.5,74.3Z M262.6,68.6 L256.6,67.0 L262.6,68.6Z M125.5,70.0 L120.8,69.3 L114.8,65.0 L120.5,66.0 L125.5,70.0Z M275.3,65.1 L273.8,67.1 L281.2,68.3 L280.5,70.0 L282.0,69.6 L283.0,72.1 L282.1,74.1 L279.6,73.8 L279.5,71.7 L276.9,73.6 L275.0,71.9 L268.3,72.0 L272.5,65.1 L276.9,63.1 L275.3,65.1Z M105.1,57.7 L107.2,57.5 L106.6,60.0 L108.5,61.8 L104.3,59.1 L105.1,57.7Z M719.2,65.0 L721.4,68.9 L718.2,68.2 L716.8,71.4 L718.9,75.2 L717.2,73.9 L715.8,75.6 L716.0,64.6 L714.6,62.4 L714.8,59.3 L716.9,58.3 L716.0,57.3 L719.2,65.0Z M384.9,61.6 L377.8,62.6 L379.6,60.3 L378.5,58.0 L385.0,55.2 L387.4,56.6 L384.9,61.6Z M428.2,54.2 L426.9,56.0 L424.2,53.8 L428.2,54.2Z M60.0,50.8 L57.8,51.7 L56.3,50.1 L61.9,49.8 L60.0,50.8Z M393.3,47.5 L391.0,49.9 L395.6,49.6 L393.1,53.4 L395.4,53.5 L401.0,60.2 L403.7,60.6 L403.2,63.8 L388.3,66.8 L387.2,66.3 L392.4,63.5 L388.3,62.2 L390.6,61.6 L389.8,58.9 L393.1,59.1 L393.4,57.8 L389.2,56.0 L388.8,53.8 L387.6,54.9 L386.3,51.6 L388.9,47.5 L393.3,47.5Z M32.0,44.6 L27.9,44.0 L32.0,44.6Z M223.8,39.6 L221.4,40.0 L223.8,39.6Z M218.0,38.4 L213.4,39.0 L218.0,38.4Z M18.4,36.0 L25.1,37.1 L18.4,36.0Z M210.8,31.9 L222.0,36.2 L215.3,35.3 L210.0,37.7 L206.2,36.6 L209.2,31.7 L210.8,31.9Z M367.8,30.1 L367.2,31.5 L369.8,33.0 L358.5,36.7 L349.4,35.6 L351.6,34.7 L346.8,33.6 L350.6,32.5 L345.9,32.0 L350.8,30.2 L354.3,31.7 L367.8,30.1Z M231.4,28.6 L228.4,27.6 L233.1,26.6 L231.4,28.6Z M11.1,29.8 L18.1,29.1 L22.4,31.2 L16.6,32.4 L15.6,35.0 L3.6,32.5 L2.9,30.9 L0.3,31.4 L1.3,32.4 L0.0,33.4 L0.0,24.5 L11.3,28.4 L11.1,29.8Z M187.4,24.2 L178.2,23.6 L181.7,21.9 L187.4,24.2Z M800.0,20.4 L797.2,19.8 L800.0,18.8 L800.0,20.4Z M2.9,20.2 L0.0,20.4 L0.0,18.8 L5.4,19.4 L2.9,20.2Z M198.8,23.3 L198.8,25.6 L201.7,23.9 L205.9,28.4 L209.8,24.9 L210.0,22.5 L216.4,23.0 L219.4,24.1 L217.9,26.4 L219.4,27.6 L214.8,30.2 L209.4,29.9 L206.0,33.8 L193.0,40.0 L189.6,46.8 L192.8,47.2 L194.9,50.9 L217.2,55.2 L217.5,59.4 L222.4,64.0 L225.3,61.0 L222.6,56.3 L229.9,52.2 L225.5,47.1 L228.1,44.8 L226.4,39.3 L235.9,39.0 L245.4,42.1 L246.0,46.8 L249.7,48.4 L256.5,43.7 L263.6,51.2 L262.7,52.6 L272.6,56.4 L276.1,59.4 L276.3,61.9 L266.6,66.1 L252.4,66.2 L242.0,73.7 L255.4,68.4 L257.4,69.5 L255.3,71.0 L256.7,75.0 L263.3,75.8 L265.5,73.3 L267.1,75.7 L254.8,81.0 L253.1,80.8 L253.0,79.0 L256.8,77.1 L250.8,77.5 L242.9,82.2 L244.5,85.2 L236.2,86.8 L240.1,86.8 L235.7,87.2 L233.5,91.2 L232.2,90.0 L233.2,92.4 L231.2,95.1 L230.3,90.8 L230.4,93.2 L229.0,92.8 L231.7,98.8 L219.2,107.9 L222.1,118.0 L221.4,121.8 L218.4,120.3 L215.7,113.1 L213.1,110.9 L201.8,110.4 L201.7,112.7 L199.7,113.1 L191.4,111.8 L185.4,114.9 L183.6,116.9 L182.5,127.9 L186.0,134.8 L190.2,137.5 L195.5,136.2 L198.3,134.9 L199.4,131.1 L206.6,129.9 L202.4,142.5 L211.2,142.2 L214.6,143.8 L213.8,153.1 L219.0,158.2 L223.2,156.4 L229.2,158.6 L233.5,153.2 L240.6,150.1 L241.9,150.9 L240.1,152.4 L240.7,157.6 L242.1,155.9 L241.3,153.4 L244.6,150.8 L248.5,154.3 L255.8,155.4 L262.5,154.0 L260.6,154.6 L261.4,155.7 L273.0,164.5 L280.1,165.0 L286.0,168.4 L289.0,173.9 L288.0,178.0 L292.0,178.3 L292.0,180.5 L293.7,179.1 L300.2,181.2 L300.9,183.8 L311.2,184.2 L320.9,189.2 L322.8,194.1 L321.9,197.8 L314.1,206.8 L312.7,217.5 L309.0,226.5 L306.7,228.8 L294.1,233.1 L291.4,241.5 L280.4,254.2 L275.1,255.2 L270.2,253.1 L273.8,259.8 L268.4,263.8 L261.5,264.1 L261.9,268.2 L260.6,269.0 L255.3,269.0 L255.6,271.2 L259.0,272.4 L255.2,274.4 L254.3,277.9 L250.5,279.0 L249.8,280.7 L254.1,282.8 L253.4,284.7 L246.4,290.5 L248.6,294.1 L242.6,295.3 L242.2,297.4 L233.4,293.9 L232.0,285.9 L235.3,282.1 L231.9,281.4 L234.8,275.8 L237.2,276.6 L238.4,272.0 L236.9,271.4 L236.2,274.2 L234.8,273.8 L237.3,265.0 L236.5,260.4 L241.2,249.8 L244.1,221.7 L241.2,216.4 L231.1,210.3 L222.8,193.8 L219.4,191.4 L219.1,188.3 L222.7,183.7 L220.1,182.8 L220.2,180.1 L228.6,169.2 L226.3,159.3 L223.2,157.9 L220.2,161.7 L209.6,155.7 L209.5,153.1 L205.6,148.2 L197.3,146.8 L189.6,141.8 L185.4,143.0 L170.0,137.1 L165.6,133.4 L164.4,127.2 L150.6,113.4 L148.6,108.5 L144.9,107.1 L145.2,110.8 L156.8,126.2 L155.5,127.1 L150.7,122.8 L150.4,120.0 L144.3,116.2 L146.3,114.3 L143.3,112.1 L139.3,104.3 L132.0,100.9 L123.6,88.2 L124.7,76.6 L122.9,70.7 L126.4,71.0 L127.6,73.1 L127.0,68.9 L116.8,64.8 L115.9,61.5 L113.0,60.5 L102.0,48.6 L73.1,42.5 L70.6,43.0 L71.1,44.5 L62.8,46.3 L65.3,41.6 L57.7,45.9 L59.4,47.0 L57.3,48.6 L47.9,53.4 L33.8,56.9 L49.5,49.8 L51.0,46.8 L40.1,47.4 L40.3,45.3 L36.0,44.9 L30.8,41.1 L34.3,37.4 L42.7,36.1 L41.1,34.7 L42.7,33.8 L33.4,34.6 L26.4,31.8 L34.5,29.8 L40.7,30.8 L29.4,25.9 L40.2,21.5 L52.0,19.2 L96.7,24.7 L113.1,22.7 L115.2,21.2 L120.5,23.4 L123.5,21.9 L123.8,23.6 L130.1,22.7 L146.9,25.8 L143.8,26.9 L155.7,26.7 L158.0,28.0 L160.5,26.9 L158.2,26.0 L159.6,25.2 L164.1,24.9 L174.6,27.4 L181.2,27.2 L181.0,25.8 L183.0,25.4 L186.4,26.1 L186.4,28.2 L190.6,24.3 L185.6,22.0 L185.8,19.6 L188.4,18.0 L196.6,21.8 L194.6,22.9 L198.8,23.3Z M146.3,15.3 L145.2,16.3 L155.7,15.6 L159.6,18.6 L160.7,17.6 L159.1,15.4 L163.3,15.4 L165.8,16.3 L167.9,20.0 L175.4,23.2 L171.7,23.3 L172.4,25.0 L148.2,25.5 L139.2,22.3 L150.2,21.4 L138.0,21.0 L136.8,20.2 L142.0,19.3 L134.7,18.8 L138.1,16.2 L146.3,15.3Z M167.8,14.6 L165.8,16.1 L162.4,14.5 L167.8,14.6Z M230.4,15.3 L223.4,16.1 L220.3,14.8 L230.4,15.3Z M207.6,15.2 L209.4,16.6 L217.1,13.9 L220.9,16.2 L220.6,17.6 L227.1,16.1 L235.3,19.3 L239.5,18.8 L251.2,24.0 L247.1,25.1 L262.6,29.2 L258.0,33.3 L251.7,30.2 L248.8,30.5 L248.6,31.8 L256.3,36.9 L255.5,38.5 L247.2,36.1 L253.0,40.2 L242.2,38.0 L233.7,34.0 L227.3,35.0 L225.4,34.3 L226.9,32.6 L235.6,32.3 L237.9,27.3 L224.5,21.8 L211.2,22.3 L200.2,19.5 L199.5,17.2 L201.2,15.3 L209.3,13.8 L207.6,15.2Z M177.0,13.7 L183.6,13.9 L182.1,15.6 L185.5,16.5 L185.1,18.5 L179.3,19.2 L172.2,16.6 L176.8,16.2 L174.4,14.8 L177.0,13.7Z M719.1,15.1 L710.8,14.7 L715.7,13.6 L719.1,15.1Z M192.9,16.1 L188.0,17.6 L186.6,14.6 L190.0,13.0 L198.9,13.6 L192.9,16.1Z M132.3,19.1 L126.5,20.2 L120.2,18.1 L124.6,14.0 L122.4,12.7 L138.8,12.9 L143.3,14.5 L135.1,16.6 L132.3,19.1Z M735.0,10.9 L724.7,10.7 L735.0,10.9Z M192.0,11.2 L184.8,11.3 L189.2,9.7 L192.0,11.2Z M722.4,9.9 L720.7,11.5 L708.8,12.0 L704.4,10.5 L708.5,8.6 L722.4,9.9Z M181.1,7.3 L182.8,8.3 L181.9,11.1 L172.2,9.9 L172.1,8.1 L181.1,7.3Z M159.5,8.4 L165.1,10.0 L150.6,12.4 L147.0,11.7 L151.6,10.8 L138.4,10.6 L143.6,7.8 L157.6,10.1 L154.4,7.9 L159.5,8.4Z M527.9,20.6 L519.3,20.5 L514.4,17.8 L524.2,11.9 L523.6,10.9 L535.9,8.3 L553.0,7.7 L530.0,12.6 L523.2,17.0 L523.6,18.8 L527.9,20.6Z M189.6,6.4 L201.8,9.8 L219.7,9.5 L222.6,11.3 L200.5,12.2 L194.6,11.5 L191.4,8.2 L184.2,7.2 L189.6,6.4Z M141.8,5.2 L139.8,7.7 L127.0,8.6 L135.3,5.5 L141.8,5.2Z M637.7,6.7 L653.6,9.2 L643.1,12.9 L673.8,15.6 L673.9,13.9 L682.2,14.3 L685.8,15.5 L686.8,16.9 L685.5,17.8 L691.8,20.5 L693.9,18.1 L710.8,18.9 L709.2,16.8 L712.2,15.9 L732.2,17.3 L739.9,20.4 L753.3,20.3 L754.9,22.8 L757.6,23.5 L773.0,23.2 L776.8,25.1 L779.6,24.4 L777.8,23.0 L778.8,22.0 L790.5,22.5 L800.0,24.5 L800.0,33.4 L794.2,34.2 L798.6,37.8 L798.3,39.3 L786.0,40.8 L778.5,44.7 L775.3,43.2 L763.4,44.7 L760.0,48.4 L762.6,49.7 L762.4,53.0 L759.3,54.9 L760.3,55.9 L756.4,57.0 L755.6,59.6 L752.3,60.1 L748.4,64.4 L745.4,54.7 L746.5,51.6 L763.7,41.9 L765.5,38.8 L755.8,43.2 L754.0,40.5 L748.3,41.3 L742.7,45.0 L744.5,46.3 L736.2,47.2 L736.3,45.6 L732.8,45.2 L716.0,46.6 L700.3,56.2 L707.0,58.3 L710.9,57.4 L714.2,61.7 L711.2,70.1 L707.2,74.9 L699.7,81.3 L696.8,82.6 L694.0,81.6 L683.4,89.4 L687.7,96.0 L686.9,99.8 L681.1,101.4 L680.3,96.2 L681.9,95.8 L677.1,93.1 L678.5,89.9 L676.2,89.0 L669.0,91.3 L671.5,88.0 L670.3,86.8 L662.3,90.7 L661.2,91.7 L664.2,94.6 L671.9,94.6 L672.3,95.7 L664.8,100.2 L670.9,107.4 L669.5,109.6 L671.3,111.5 L670.4,115.0 L663.7,123.2 L657.5,127.2 L646.2,130.2 L645.4,132.6 L644.2,132.7 L644.1,130.2 L641.2,129.5 L635.3,133.9 L634.8,135.4 L642.0,143.8 L643.0,147.9 L642.7,151.8 L633.7,158.7 L633.5,155.7 L630.0,154.2 L628.0,150.7 L624.1,149.7 L624.4,148.0 L622.4,148.0 L620.5,157.2 L628.8,165.5 L631.6,174.9 L625.3,171.6 L622.4,163.4 L618.9,159.2 L618.5,160.5 L619.5,152.4 L615.9,140.2 L611.9,142.9 L609.3,142.1 L609.6,137.3 L603.2,127.2 L601.1,127.1 L600.6,129.2 L593.3,130.0 L592.2,133.0 L582.6,141.0 L578.5,142.4 L577.5,154.8 L572.3,160.1 L563.4,142.2 L561.4,130.3 L556.6,131.4 L547.5,121.3 L536.7,122.0 L527.6,120.6 L525.5,117.5 L521.6,118.9 L514.5,115.8 L511.4,110.8 L506.6,111.2 L512.9,122.8 L513.4,120.0 L514.6,120.4 L515.1,124.4 L520.0,124.2 L525.2,119.1 L526.3,123.9 L532.9,128.2 L528.5,132.8 L528.2,135.7 L522.8,139.5 L516.4,141.4 L515.9,143.1 L508.2,146.7 L496.6,149.7 L494.8,140.5 L487.0,130.5 L485.5,125.1 L477.0,115.4 L477.6,112.2 L475.4,116.3 L472.0,111.4 L479.0,126.4 L481.9,128.9 L483.3,136.4 L487.3,142.4 L496.3,150.2 L494.9,151.7 L499.1,154.6 L513.6,151.1 L513.4,154.1 L506.1,168.4 L489.5,183.5 L487.1,188.2 L486.2,192.2 L490.0,201.7 L490.6,210.4 L487.7,214.9 L477.3,221.7 L479.1,230.5 L472.4,235.0 L471.6,241.7 L462.7,250.6 L457.3,253.2 L450.2,253.0 L443.6,255.2 L440.8,253.6 L440.5,248.1 L433.8,238.0 L431.7,226.9 L426.2,217.9 L426.2,212.9 L430.4,201.6 L426.5,189.0 L419.6,180.2 L420.9,169.5 L418.9,167.2 L413.1,168.3 L409.6,163.8 L395.6,167.3 L380.0,167.0 L372.4,161.6 L367.0,153.6 L363.1,150.7 L360.8,145.0 L363.4,141.9 L364.1,137.5 L362.3,129.1 L367.9,119.4 L378.8,111.3 L379.3,105.4 L384.6,102.0 L386.8,98.3 L395.2,99.6 L403.3,96.4 L421.1,94.8 L424.7,95.8 L423.0,102.7 L442.4,110.5 L444.6,108.9 L444.7,106.1 L447.9,104.8 L464.2,109.2 L468.8,107.6 L475.0,109.0 L480.0,100.8 L480.4,96.3 L472.2,97.5 L461.4,96.3 L458.2,90.1 L465.0,86.2 L474.5,84.4 L485.2,86.8 L489.7,86.6 L492.7,84.5 L481.5,77.2 L486.9,72.8 L477.7,75.0 L480.7,77.5 L475.3,79.2 L472.1,77.0 L474.0,75.4 L468.3,74.3 L461.5,83.2 L464.0,86.6 L458.6,88.6 L455.4,86.8 L452.7,87.4 L454.2,88.6 L453.1,89.0 L450.3,88.3 L453.4,94.1 L451.4,93.5 L451.4,96.8 L450.0,96.9 L443.1,88.3 L443.4,85.1 L429.2,76.1 L427.4,76.9 L428.0,79.8 L441.1,88.5 L437.5,87.9 L437.9,91.3 L435.8,93.4 L434.2,88.8 L419.8,79.2 L414.5,81.9 L406.9,82.0 L406.8,84.7 L401.8,86.6 L399.4,90.4 L400.2,91.7 L395.2,96.3 L388.0,97.9 L385.5,95.7 L380.2,95.8 L379.1,82.2 L382.3,80.6 L395.8,81.3 L396.9,80.0 L397.4,75.5 L390.0,71.2 L389.8,69.6 L396.4,69.7 L395.7,67.2 L397.8,68.1 L403.0,66.4 L403.6,64.6 L408.5,63.1 L410.5,59.8 L418.0,58.8 L419.6,57.7 L418.0,54.4 L419.0,50.9 L423.5,49.5 L422.8,51.4 L424.2,52.3 L421.4,54.5 L424.3,57.8 L427.8,56.7 L431.4,58.3 L439.2,55.9 L443.7,56.8 L447.3,55.1 L448.0,50.2 L453.6,51.0 L454.3,48.0 L451.9,46.2 L464.7,44.4 L462.4,43.3 L450.8,44.8 L447.4,42.8 L447.9,37.4 L456.4,33.1 L453.1,31.1 L449.3,31.7 L447.5,34.6 L439.7,38.3 L438.0,41.5 L441.8,44.3 L437.4,47.3 L435.3,53.1 L428.8,54.8 L423.0,45.6 L418.6,48.2 L412.6,47.6 L411.1,40.1 L423.4,34.5 L432.8,27.1 L442.6,22.6 L454.6,19.9 L462.6,19.6 L469.5,21.2 L466.7,21.8 L469.1,23.2 L481.1,24.3 L491.2,27.9 L491.4,29.4 L485.3,31.1 L473.7,29.7 L477.4,31.3 L477.6,34.6 L482.2,35.9 L481.2,33.8 L482.6,33.0 L488.0,34.4 L489.9,33.9 L488.4,32.2 L493.5,30.0 L497.7,31.0 L499.0,29.4 L496.6,25.4 L502.8,26.1 L504.0,27.4 L501.2,28.9 L503.0,29.6 L519.4,24.8 L521.0,24.9 L518.9,26.2 L530.7,24.7 L533.2,26.0 L535.7,24.6 L533.4,23.3 L534.6,22.6 L552.2,26.5 L553.7,25.3 L548.7,23.4 L548.2,19.9 L553.8,15.9 L561.3,16.0 L559.7,19.1 L561.8,21.4 L561.2,24.4 L563.7,25.8 L558.4,30.4 L560.9,30.7 L566.8,27.2 L565.5,25.9 L566.5,24.5 L563.6,23.0 L565.3,20.8 L562.4,19.0 L566.4,17.5 L565.9,15.9 L568.2,17.1 L567.3,19.2 L569.7,19.7 L568.7,18.1 L572.4,17.2 L581.1,18.3 L578.9,14.1 L592.9,13.5 L591.1,12.3 L593.7,10.8 L623.9,7.9 L631.9,5.1 L637.7,6.7Z M509.1,86.0 L512.0,88.3 L510.2,88.5 L508.6,91.5 L509.3,94.3 L519.6,95.6 L519.7,91.2 L517.1,88.8 L517.6,86.9 L521.6,86.8 L519.4,84.2 L517.4,86.4 L516.7,82.7 L511.8,78.6 L517.9,77.2 L517.9,73.7 L509.1,74.7 L503.7,78.6 L509.1,86.0Z M191.5,5.5 L185.7,4.8 L191.5,5.5Z M155.1,5.1 L147.7,5.0 L155.1,5.1Z M454.9,4.8 L446.1,5.2 L447.6,4.6 L446.2,3.9 L450.8,3.4 L454.9,4.8Z M156.3,3.1 L149.9,3.5 L156.3,3.1Z M187.0,4.3 L182.0,4.3 L180.8,2.5 L187.0,4.3Z M177.6,3.7 L178.5,4.6 L166.3,3.6 L168.4,2.9 L165.6,1.6 L177.6,3.7Z M633.5,3.8 L621.0,4.6 L626.9,1.4 L634.2,2.9 L633.5,3.8Z M440.6,0.7 L447.9,2.3 L442.3,3.2 L438.0,7.1 L435.4,7.2 L423.2,0.8 L440.6,0.7Z M460.6,0.0 L451.2,1.3 L440.3,0.0Z M622.1,2.5 L611.0,2.1 L606.0,0.0 L621.5,0.0 L622.1,2.5Z M206.6,0.8 L209.3,1.5 L198.2,4.0 L185.6,0.0 L206.6,0.8Z M242.8,0.0 L229.1,1.5 L232.2,1.8 L230.6,2.2 L232.5,3.3 L222.8,6.2 L226.9,7.2 L221.0,8.5 L201.1,7.8 L205.0,6.3 L203.9,4.7 L211.2,5.5 L204.5,3.6 L210.9,1.4 L207.3,0.0Z M360.1,0.0 L356.2,2.8 L356.3,5.2 L359.0,6.7 L351.8,7.5 L355.9,8.7 L356.4,10.6 L354.1,10.8 L357.0,12.7 L347.6,14.9 L350.4,17.4 L344.9,17.0 L350.8,19.0 L351.7,20.8 L347.7,21.2 L343.2,19.0 L344.0,20.6 L341.4,21.7 L350.3,21.9 L311.5,32.3 L308.5,36.7 L304.8,38.5 L305.7,40.2 L303.6,44.2 L300.5,44.4 L292.8,42.5 L285.3,36.4 L280.1,28.5 L287.0,22.4 L278.5,23.1 L279.2,20.4 L285.8,21.0 L275.9,18.6 L278.4,16.5 L269.8,10.0 L247.8,8.8 L241.3,6.6 L251.6,5.8 L237.1,4.4 L254.8,0.5 L250.8,0.0Z"/></svg>
